<svg width="393" height="382" viewBox="0 0 393 382" fill="none" xmlns="http://www.w3.org/2000/svg">
<path d="M40 157.5H-8.5L-15.5 391.5L161 429.5L358 439.5L466 369L472.5 172.5L399 161.5H365.5V114L371 112V96.5L365.5 93.5V83.5L371 80V61.5L365.5 58.5V44.5H334.5V31H331.5V44.5H328V26.5H324.5V44.5H317.5V141.5H299.5V26.5H282.5V0.5H279V26.5H275.5V20.5H243L235 26.5H219.5V180.5H190V171L193.5 168V157.5L190 155V148L193.5 145V131L190 129.5V123.5H133V172.5H91.5C91.5 160.333 91.2 135.3 90 132.5C88.8 129.7 87.8333 128.333 87.5 128V119H91.5V114L90 112V96.5L87.5 93.5V77H40V157.5Z" fill="url(#paint0_linear_612_718)" stroke="#8B3661"/>
<path fill-rule="evenodd" clip-rule="evenodd" d="M69 200H-13L-36 373.5L60 430L211 453.5L417.5 439.5L406.5 293.5L401.5 69.5L399.5 61H346V62.5H348.5V69.5H340.5V118H276V131H257.5V189.5H262V175.5H273.5V268.5H253.5V350L230.5 352.5V340.5L236 337.5V323L230.5 317V309.5L236 306V293.5L230.5 289.5V282L236 278.5V265L230.5 258.5V252.5L236 249V234.5L230.5 230V222L236 217.5V202.5L230.5 197.5V189.5L236 185V171L230.5 165.5V159L236 155.5V140.5L230.5 137V129.5L236 126V112L230.5 108.5V82H168.5V373.5H129.5V265L138 258.5V207L129.5 200H123.5V162C123.5 157.667 119.1 149 101.5 149C83.9 149 79.8333 160 80 165.5V200H73.5V144H69V200ZM350.5 68V62.5H357V68H350.5ZM359 62.5V68H365V62.5H359ZM367 68V62.5H373V68H367ZM375 62.5V68H380.5V62.5H375ZM383 68V62.5H388.5V68H383ZM390.5 62.5V68H396V62.5H390.5ZM260 143V135H273.5V143H260ZM260 145.5V154H273.5V145.5H260ZM260 165.5V157H273.5V165.5H260Z" fill="#2D1E4E"/>
<path d="M401.5 69.5L406.5 293.5L417.5 439.5L211 453.5L60 430L-36 373.5L-13 200H69V144H73.5V200H80V165.5C79.8333 160 83.9 149 101.5 149C119.1 149 123.5 157.667 123.5 162V200H129.5L138 207V258.5L129.5 265V373.5H168.5V82H230.5V108.5L236 112V126L230.5 129.5V137L236 140.5V155.5L230.5 159V165.5L236 171V185L230.5 189.5V197.5L236 202.5V217.5L230.5 222V230L236 234.5V249L230.5 252.5V258.5L236 265V278.5L230.5 282V289.5L236 293.5V306L230.5 309.5V317L236 323V337.5L230.5 340.5V352.5L253.5 350V268.5H273.5V175.5H262V189.5H257.5V131H276V118H340.5V69.5H348.5M401.5 69.5H348.5M401.5 69.5L399.5 61H346V62.5H348.5V69.5M260 135V143H273.5V135H260ZM260 145.5V154H273.5V145.5H260ZM260 157V165.5H273.5V157H260ZM350.5 62.5V68H357V62.5H350.5ZM359 62.5V68H365V62.5H359ZM367 62.5V68H373V62.5H367ZM375 62.5V68H380.5V62.5H375ZM383 62.5V68H388.5V62.5H383ZM390.5 62.5V68H396V62.5H390.5Z" stroke="#2D1E4E"/>
<path fill-rule="evenodd" clip-rule="evenodd" d="M178 113.996C177.998 113.443 177.548 112.998 176.996 113C176.443 113.002 175.998 113.452 176 114.004L176.983 340.004C176.985 340.557 177.435 341.002 177.987 341C178.539 340.998 178.985 340.548 178.983 339.996L178 113.996ZM182 117C182 115.343 183.085 114 184.423 114H221.577C222.915 114 224 115.343 224 117C224 118.657 222.915 120 221.577 120H184.423C183.085 120 182 118.657 182 117ZM182 139C182 137.343 183.085 136 184.423 136H221.577C222.915 136 224 137.343 224 139C224 140.657 222.915 142 221.577 142H184.423C183.085 142 182 140.657 182 139ZM184.423 158C183.085 158 182 159.343 182 161C182 162.657 183.085 164 184.423 164H221.577C222.915 164 224 162.657 224 161C224 159.343 222.915 158 221.577 158H184.423ZM182 183C182 181.343 183.085 180 184.423 180H221.577C222.915 180 224 181.343 224 183C224 184.657 222.915 186 221.577 186H184.423C183.085 186 182 184.657 182 183ZM184.423 202C183.085 202 182 203.343 182 205C182 206.657 183.085 208 184.423 208H221.577C222.915 208 224 206.657 224 205C224 203.343 222.915 202 221.577 202H184.423ZM182 227C182 225.343 183.085 224 184.423 224H221.577C222.915 224 224 225.343 224 227C224 228.657 222.915 230 221.577 230H184.423C183.085 230 182 228.657 182 227ZM184.423 246C183.085 246 182 247.343 182 249C182 250.657 183.085 252 184.423 252H221.577C222.915 252 224 250.657 224 249C224 247.343 222.915 246 221.577 246H184.423ZM182 271C182 269.343 183.085 268 184.423 268H221.577C222.915 268 224 269.343 224 271C224 272.657 222.915 274 221.577 274H184.423C183.085 274 182 272.657 182 271ZM184.423 290C183.085 290 182 291.343 182 293C182 294.657 183.085 296 184.423 296H221.577C222.915 296 224 294.657 224 293C224 291.343 222.915 290 221.577 290H184.423ZM182 315C182 313.343 183.085 312 184.423 312H221.577C222.915 312 224 313.343 224 315C224 316.657 222.915 318 221.577 318H184.423C183.085 318 182 316.657 182 315ZM184.423 334C183.085 334 182 335.343 182 337C182 338.657 183.085 340 184.423 340H221.577C222.915 340 224 338.657 224 337C224 335.343 222.915 334 221.577 334H184.423Z" fill="#DC8D7C"/>
<path d="M12 219H29V234H12V219Z" fill="#DC8D7C"/>
<path d="M36 307H53V322H36V307Z" fill="#DC8D7C"/>
<path d="M36 219H53V234H36V219Z" fill="#DC8D7C"/>
<path d="M58 242H75V257H58V242Z" fill="#DC8D7C"/>
<path d="M12 242H29V257H12V242Z" fill="#DC8D7C"/>
<path d="M82 263H99V278H82V263Z" fill="#DC8D7C"/>
<path d="M58 263H75V278H58V263Z" fill="#DC8D7C"/>
<defs>
<linearGradient id="paint0_linear_612_718" x1="229" y1="20.5" x2="229" y2="346.5" gradientUnits="userSpaceOnUse">
<stop offset="0.0001" stop-color="#83315A" stop-opacity="0.927083"/>
<stop offset="0.078125" stop-color="#292359" stop-opacity="0.67"/>
<stop offset="1" stop-color="#C53367"/>
</linearGradient>
</defs>
</svg>

