<svg width="1512" height="1030" viewBox="0 0 1512 1030" fill="none" xmlns="http://www.w3.org/2000/svg">
<path d="M-10.4139 603.551H111.432V423.297H230.766V460.244L237.047 466.961V501.669L240.816 506.147V517.343H230.766V537.495C231.604 538.242 234.032 541.302 237.047 547.572C240.062 553.841 240.816 609.896 240.816 637.139H345.076V527.419H488.277V540.854L497.07 544.213V575.562L488.277 582.279V597.953L497.07 603.551V627.063L488.277 633.78V655.052H562.389V310.219H601.33L621.428 296.784H703.078V310.219H711.871V252H720.664V310.219H763.373V567.724H808.594V350.524H826.18V310.219H834.973V350.524H843.766V320.295H851.303V350.524H929.184V381.872L943.002 388.59V430.015L929.184 437.852V460.244L943.002 466.961V501.669L929.184 506.147V612.508H1013.35L1190.9 636.192L1198 296.784L1355 107H1417.5V0.5H1599V1153L1181.67 1077.14L910.342 1235L415.42 1212.61L-28 1127.52L-10.4139 603.551Z" fill="url(#paint0_linear_20_24)"/>
<path d="M1181.67 1077.14L1198 637.139L1013.35 612.508H929.184V506.147L943.002 501.669V466.961L929.184 460.244V437.852L943.002 430.015V388.59L929.184 381.872V350.524H851.303V320.295H843.766V350.524H834.973V310.219H826.18V350.524H808.594V567.724H763.373V310.219H720.664V252H711.871V310.219H703.078V296.784H621.428L601.33 310.219H562.389V655.052H488.277V633.78L497.07 627.063V603.551L488.277 597.953V582.279L497.07 575.562V544.213L488.277 540.854V527.419H345.076V637.139H240.816C240.816 609.896 240.062 553.841 237.047 547.572C234.032 541.302 231.604 538.242 230.766 537.495V517.343H240.816V506.147L237.047 501.669V466.961L230.766 460.244V423.297H111.432V603.551H-10.4139L-28 1127.52L415.42 1212.61L910.342 1235L1181.67 1077.14ZM1181.67 1077.14L1198 296.784L1355 107H1417.5V0.5H1599V1153L1181.67 1077.14Z" stroke="#8B3661"/>
<path fill-rule="evenodd" clip-rule="evenodd" d="M855.123 700.064H680.094L680.094 926V1027.17L835.913 1133.69L1158.22 1178L1599 1151.61L1575.52 876.344L1564.85 454.025L1560.58 438H1446.38V440.828H1451.72V454.025H1434.64V545.465H1296.97V569.975H1257.48V680.268H1267.08V653.873H1291.63V829.21H1248.94V982.866L1199.85 987.58V964.955L1211.59 959.299V931.962L1199.85 920.65V906.51L1211.59 899.911V876.344L1199.85 868.803V854.662L1211.59 848.064V822.611L1199.85 810.357V799.045L1211.59 792.446V765.108L1199.85 756.624V741.541L1211.59 733.057V704.777L1199.85 695.35V680.268L1211.59 671.783V645.389L1199.85 635.019V622.764L1211.59 616.166V587.885L1199.85 581.287V567.146L1211.59 560.548V534.153L1199.85 527.554V477.592H1067.51V1027.17H984.261V822.611L1002.4 810.357V713.261L984.261 700.064H971.454V628.42C971.454 620.251 962.062 603.911 924.495 603.911C886.928 603.911 878.247 624.65 878.603 635.019V700.064H864.729V594.484H855.123V700.064ZM1455.99 451.197V440.828H1469.86V451.197H1455.99ZM1474.13 440.828V451.197H1486.94V440.828H1474.13ZM1491.21 451.197V440.828H1504.01V451.197H1491.21ZM1508.28 440.828V451.197H1520.02V440.828H1508.28ZM1525.36 451.197V440.828H1537.1V451.197H1525.36ZM1541.37 440.828V451.197H1553.11V440.828H1541.37ZM1262.81 592.599V577.516H1291.63V592.599H1262.81ZM1262.81 597.312V613.338H1291.63V597.312H1262.81ZM1262.81 635.019V618.994H1291.63V635.019H1262.81Z" fill="#2D1E4E"/>
<path d="M680.094 1027.17V926H617V777H406.5V725H353.5V1041.5H253V926H171C172.333 907.333 162.6 869.6 113 868C63.4 866.4 70 867.333 79.5 868V1041.5H18.5V827.5L44 815V762L18.5 736.5V689L44 667V607L18.5 585V528.5L44 516.5V461.5L18.5 439.5V414L-89 402.5L-68.5 1057.5L283 1238L680.094 1027.17Z" fill="#2D1E4E"/>
<path d="M1564.85 454.025L1575.52 876.344L1599 1151.61L1158.22 1178L835.913 1133.69L680.094 1027.17M1564.85 454.025H1451.72M1564.85 454.025L1560.58 438H1446.38V440.828H1451.72V454.025M680.094 1027.17V926M680.094 1027.17L283 1238L-68.5 1057.5L-89 402.5L18.5 414V439.5L44 461.5V516.5L18.5 528.5V585L44 607V667L18.5 689V736.5L44 762V815L18.5 827.5V1041.5H79.5V868C70 867.333 63.4 866.4 113 868C162.6 869.6 172.333 907.333 171 926H253V1041.5H353.5V725H406.5V777H617V926H680.094M1451.72 454.025H1434.64V545.465H1296.97V569.975H1257.48V680.268H1267.08V653.873H1291.63V829.21H1248.94V982.866L1199.85 987.58V964.955L1211.59 959.299V931.962L1199.85 920.65V906.51L1211.59 899.911V876.344L1199.85 868.803V854.662L1211.59 848.064V822.611L1199.85 810.357V799.045L1211.59 792.446V765.108L1199.85 756.624V741.541L1211.59 733.057V704.777L1199.85 695.35V680.268L1211.59 671.783V645.389L1199.85 635.019V622.764L1211.59 616.166V587.885L1199.85 581.287V567.146L1211.59 560.548V534.153L1199.85 527.554V477.592H1067.51V1027.17H984.261V822.611L1002.4 810.357V713.261L984.261 700.064H971.454V628.42C971.454 620.251 962.062 603.911 924.495 603.911C886.928 603.911 878.247 624.65 878.603 635.019V700.064H864.729V594.484H855.123V700.064H680.094L680.094 926M1262.81 577.516V592.599H1291.63V577.516H1262.81ZM1262.81 597.312V613.338H1291.63V597.312H1262.81ZM1262.81 618.994V635.019H1291.63V618.994H1262.81ZM1455.99 440.828V451.197H1469.86V440.828H1455.99ZM1474.13 440.828V451.197H1486.94V440.828H1474.13ZM1491.21 440.828V451.197H1504.01V440.828H1491.21ZM1508.28 440.828V451.197H1520.02V440.828H1508.28ZM1525.36 440.828V451.197H1537.1V440.828H1525.36ZM1541.37 440.828V451.197H1553.11V440.828H1541.37Z" stroke="#2D1E4E"/>
<path fill-rule="evenodd" clip-rule="evenodd" d="M1086.56 538.228C1086.56 537.676 1086.11 537.23 1085.55 537.232C1085 537.234 1084.56 537.684 1084.56 538.236L1086.66 964.12C1086.66 964.672 1087.11 965.118 1087.66 965.116C1088.21 965.114 1088.66 964.665 1088.66 964.113L1086.56 538.228ZM1096.23 543.885C1096.23 540.763 1098.54 538.232 1101.4 538.232H1180.69C1183.55 538.232 1185.86 540.763 1185.86 543.885C1185.86 547.008 1183.55 549.539 1180.69 549.539H1101.4C1098.54 549.539 1096.23 547.008 1096.23 543.885ZM1096.23 585.343C1096.23 582.221 1098.54 579.69 1101.4 579.69H1180.69C1183.55 579.69 1185.86 582.221 1185.86 585.343C1185.86 588.465 1183.55 590.997 1180.69 590.997H1101.4C1098.54 590.997 1096.23 588.465 1096.23 585.343ZM1101.4 621.148C1098.54 621.148 1096.23 623.679 1096.23 626.801C1096.23 629.923 1098.54 632.454 1101.4 632.454H1180.69C1183.55 632.454 1185.86 629.923 1185.86 626.801C1185.86 623.679 1183.55 621.148 1180.69 621.148H1101.4ZM1096.23 668.259C1096.23 665.136 1098.54 662.605 1101.4 662.605H1180.69C1183.55 662.605 1185.86 665.136 1185.86 668.259C1185.86 671.381 1183.55 673.912 1180.69 673.912H1101.4C1098.54 673.912 1096.23 671.381 1096.23 668.259ZM1101.4 704.063C1098.54 704.063 1096.23 706.594 1096.23 709.716C1096.23 712.839 1098.54 715.37 1101.4 715.37H1180.69C1183.55 715.37 1185.86 712.839 1185.86 709.716C1185.86 706.594 1183.55 704.063 1180.69 704.063H1101.4ZM1096.23 751.174C1096.23 748.052 1098.54 745.521 1101.4 745.521H1180.69C1183.55 745.521 1185.86 748.052 1185.86 751.174C1185.86 754.296 1183.55 756.827 1180.69 756.827H1101.4C1098.54 756.827 1096.23 754.296 1096.23 751.174ZM1101.4 786.978C1098.54 786.978 1096.23 789.509 1096.23 792.632C1096.23 795.754 1098.54 798.285 1101.4 798.285H1180.69C1183.55 798.285 1185.86 795.754 1185.86 792.632C1185.86 789.509 1183.55 786.978 1180.69 786.978H1101.4ZM1096.23 834.089C1096.23 830.967 1098.54 828.436 1101.4 828.436H1180.69C1183.55 828.436 1185.86 830.967 1185.86 834.089C1185.86 837.212 1183.55 839.743 1180.69 839.743H1101.4C1098.54 839.743 1096.23 837.212 1096.23 834.089ZM1101.4 869.894C1098.54 869.894 1096.23 872.425 1096.23 875.547C1096.23 878.669 1098.54 881.2 1101.4 881.2H1180.69C1183.55 881.2 1185.86 878.669 1185.86 875.547C1185.86 872.425 1183.55 869.894 1180.69 869.894H1101.4ZM1096.23 917.005C1096.23 913.883 1098.54 911.352 1101.4 911.352H1180.69C1183.55 911.352 1185.86 913.883 1185.86 917.005C1185.86 920.127 1183.55 922.658 1180.69 922.658H1101.4C1098.54 922.658 1096.23 920.127 1096.23 917.005ZM1101.4 952.809C1098.54 952.809 1096.23 955.34 1096.23 958.463C1096.23 961.585 1098.54 964.116 1101.4 964.116H1180.69C1183.55 964.116 1185.86 961.585 1185.86 958.463C1185.86 955.34 1183.55 952.809 1180.69 952.809H1101.4Z" fill="#DC8D7C"/>
<path d="M734 737H770.149V765.107H734V737Z" fill="#DC8D7C"/>
<path d="M785.034 901.893H821.184V930H785.034V901.893Z" fill="#DC8D7C"/>
<path d="M785.034 737H821.184V765.107H785.034V737Z" fill="#DC8D7C"/>
<path d="M831.816 780.097H867.966V808.204H831.816V780.097Z" fill="#DC8D7C"/>
<path d="M734 780.097H770.149V808.204H734V780.097Z" fill="#DC8D7C"/>
<path d="M882.851 819.447H919V847.553H882.851V819.447Z" fill="#DC8D7C"/>
<path d="M831.816 819.447H867.966V847.553H831.816V819.447Z" fill="#DC8D7C"/>
<path d="M407 802H433V865H407V802Z" fill="#DC8D7C"/>
<path d="M443 802H469V865H443V802Z" fill="#DC8D7C"/>
<path d="M519 802H545V865H519V802Z" fill="#DC8D7C"/>
<path d="M443 883H469V946H443V883Z" fill="#DC8D7C"/>
<defs>
<linearGradient id="paint0_linear_20_24" x1="581.5" y1="-27" x2="586.256" y2="1026.76" gradientUnits="userSpaceOnUse">
<stop offset="0.0001" stop-color="#83316A" stop-opacity="0.927083"/>
<stop offset="0.078125" stop-color="#292359" stop-opacity="0.67"/>
<stop offset="1" stop-color="#C53367"/>
</linearGradient>
</defs>
</svg>

