<svg version="1.1" id="Layer_1" xmlns="http://www.w3.org/2000/svg" xmlns:xlink="http://www.w3.org/1999/xlink" x="0px" y="0px"
	 width="100%" viewBox="0 0 344 496"
<path fill="#13294B" opacity="1.000000" stroke="none" 
	d="
M345.000000,3.000000 
	C345.000000,47.020893 345.000000,91.041786 344.532562,135.493256 
	C321.069122,135.949753 298.072693,136.057617 275.077545,135.928909 
	C270.743439,135.904663 268.902008,136.912491 268.911133,141.736084 
	C269.046417,213.224472 269.043884,284.713257 268.914917,356.201691 
	C268.906372,360.933167 270.595673,362.105652 275.015869,362.074585 
	C298.342926,361.910553 321.671783,361.999084 345.000000,362.000000 
	C345.000000,406.020905 345.000000,450.041779 344.532562,494.493408 
	C232.258896,494.948639 120.452637,494.943909 8.646578,495.094421 
	C3.689663,495.101074 2.929065,493.046844 2.939938,488.835999 
	C3.043629,448.679169 3.086668,408.521515 2.895686,368.365295 
	C2.871384,363.255585 4.455392,361.840973 9.448718,361.897980 
	C30.607582,362.139709 51.771484,361.910553 72.931892,362.071198 
	C77.278137,362.104187 79.098541,361.065979 79.089500,356.255646 
	C78.955215,284.772919 78.957802,213.289734 79.085571,141.806961 
	C79.094002,137.090347 77.428574,135.885345 72.994530,135.923218 
	C52.334290,136.099747 31.671692,136.002686 11.009936,135.998627 
	C3.010903,135.997070 3.002536,135.991211 3.001917,128.199005 
	C2.998819,89.208275 2.999409,50.217537 3.001313,11.226804 
	C3.001714,3.008104 3.006748,3.001574 11.083617,3.001457 
	C122.389076,2.999841 233.694534,3.000157 345.000000,3.000000 
M249.094925,154.500198 
	C249.095657,148.834900 249.064316,143.169357 249.103607,137.504333 
	C249.192383,124.706459 256.894928,117.003822 269.689240,116.975708 
	C286.185822,116.939461 302.682587,116.965874 319.179260,116.965317 
	C320.931000,116.965256 322.682739,116.965302 324.465332,116.965302 
	C324.465332,85.132965 324.465332,54.068031 324.465332,22.783926 
	C223.756149,22.783926 123.382187,22.783926 22.893023,22.783926 
	C22.893023,54.325089 22.893023,85.513496 22.893023,116.965500 
	C40.974644,116.965500 58.627499,116.958542 76.280342,116.967667 
	C90.794083,116.975174 98.012276,124.209381 98.013893,138.793533 
	C98.022064,212.445374 98.022171,286.097198 98.013466,359.749054 
	C98.011772,374.044922 90.836792,381.271576 76.535912,381.315979 
	C60.372654,381.366150 44.209110,381.319519 28.045727,381.342224 
	C26.299061,381.344696 24.552652,381.527985 22.821186,381.626556 
	C22.821186,413.330780 22.821186,444.417114 22.821186,475.521881 
	C123.565117,475.521881 223.950424,475.521881 324.501526,475.521881 
	C324.501526,444.098816 324.501526,413.031830 324.501526,381.329102 
	C322.421631,381.329102 320.637756,381.329102 318.853851,381.329071 
	C303.023712,381.328918 287.193512,381.350128 271.363403,381.322540 
	C256.149506,381.295990 249.097992,374.201355 249.096985,358.959137 
	C249.092529,291.139465 249.094971,223.319778 249.094925,154.500198 
z"/>
<path fill="#000000" opacity="1.000000" stroke="none" 
	d="
M345.000000,2.500000 
	C233.694534,3.000157 122.389076,2.999841 11.083617,3.001457 
	C3.006748,3.001574 3.001714,3.008104 3.001313,11.226804 
	C2.999409,50.217537 2.998819,89.208275 3.001917,128.199005 
	C3.002536,135.991211 3.010903,135.997070 11.009936,135.998627 
	C31.671692,136.002686 52.334290,136.099747 72.994530,135.923218 
	C77.428574,135.885345 79.094002,137.090347 79.085571,141.806961 
	C78.957802,213.289734 78.955215,284.772919 79.089500,356.255646 
	C79.098541,361.065979 77.278137,362.104187 72.931892,362.071198 
	C51.771484,361.910553 30.607582,362.139709 9.448718,361.897980 
	C4.455392,361.840973 2.871384,363.255585 2.895686,368.365295 
	C3.086668,408.521515 3.043629,448.679169 2.939938,488.835999 
	C2.929065,493.046844 3.689663,495.101074 8.646578,495.094421 
	C120.452637,494.943909 232.258896,494.948639 344.532562,494.962097 
	C344.667084,495.666687 344.452850,496.783722 343.977295,496.909058 
	C342.886841,497.196411 341.668915,497.000000 340.502747,497.000000 
	C227.383698,497.000000 114.264664,497.000000 1.072810,497.000000 
	C1.072810,331.784821 1.072810,166.569595 1.072810,1.000000 
	C2.866241,1.000000 4.754672,1.000000 6.643104,1.000000 
	C117.929581,1.000000 229.216049,0.996077 340.502502,1.041504 
	C342.001801,1.042116 343.500854,1.666667 345.000000,2.500000 
z"/>
<path fill="#000000" opacity="1.000000" stroke="none" 
	d="
M345.000000,361.531342 
	C321.671783,361.999084 298.342926,361.910553 275.015869,362.074585 
	C270.595673,362.105652 268.906372,360.933167 268.914917,356.201691 
	C269.043884,284.713257 269.046417,213.224472 268.911133,141.736084 
	C268.902008,136.912491 270.743439,135.904663 275.077545,135.928909 
	C298.072693,136.057617 321.069122,135.949753 344.532562,135.961914 
	C345.000000,211.020889 345.000000,286.041779 345.000000,361.531342 
z"/>
<path fill="#FE5F05" opacity="1.000000" stroke="none" 
	d="
M249.094925,155.000153 
	C249.094971,223.319778 249.092529,291.139465 249.096985,358.959137 
	C249.097992,374.201355 256.149506,381.295990 271.363403,381.322540 
	C287.193512,381.350128 303.023712,381.328918 318.853851,381.329071 
	C320.637756,381.329102 322.421631,381.329102 324.501526,381.329102 
	C324.501526,413.031830 324.501526,444.098816 324.501526,475.521881 
	C223.950424,475.521881 123.565117,475.521881 22.821186,475.521881 
	C22.821186,444.417114 22.821186,413.330780 22.821186,381.626556 
	C24.552652,381.527985 26.299061,381.344696 28.045727,381.342224 
	C44.209110,381.319519 60.372654,381.366150 76.535912,381.315979 
	C90.836792,381.271576 98.011772,374.044922 98.013466,359.749054 
	C98.022171,286.097198 98.022064,212.445374 98.013893,138.793533 
	C98.012276,124.209381 90.794083,116.975174 76.280342,116.967667 
	C58.627499,116.958542 40.974644,116.965500 22.893023,116.965500 
	C22.893023,85.513496 22.893023,54.325089 22.893023,22.783926 
	C123.382187,22.783926 223.756149,22.783926 324.465332,22.783926 
	C324.465332,54.068031 324.465332,85.132965 324.465332,116.965302 
	C322.682739,116.965302 320.931000,116.965256 319.179260,116.965317 
	C302.682587,116.965874 286.185822,116.939461 269.689240,116.975708 
	C256.894928,117.003822 249.192383,124.706459 249.103607,137.504333 
	C249.064316,143.169357 249.095657,148.834900 249.094925,155.000153 
z"/>
</svg>