<?xml version="1.0" encoding="UTF-8" standalone="no"?><!DOCTYPE svg PUBLIC "-//W3C//DTD SVG 1.1//EN" "http://www.w3.org/Graphics/SVG/1.1/DTD/svg11.dtd"><svg width="100%" height="100%" viewBox="0 0 1080 1080" version="1.1" xmlns="http://www.w3.org/2000/svg" xmlns:xlink="http://www.w3.org/1999/xlink" xml:space="preserve" xmlns:serif="http://www.serif.com/" style="fill-rule:evenodd;clip-rule:evenodd;stroke-linecap:round;stroke-linejoin:round;stroke-miterlimit:1.5;"><g id="colored"><g id="Compass"><g transform="matrix(1,0,0,1,99.5548,98.8705)"><circle cx="441.129" cy="441.129" r="441.129" style="fill:#ffc12f;stroke:#000;stroke-width:4px;"/></g><g><circle cx="540.684" cy="540" r="365" style="fill:#fff19f;stroke:#000;stroke-width:4px;"/></g><g><g><g transform="matrix(0.873485,0.873485,-0.707107,0.707107,130.036,-16.0412)"><path d="M553,69.862L196,69.862C196,69.862 188.497,58.658 184.941,54.068C172.524,38.036 154.827,39.594 146.489,51.068C138.151,62.542 135.286,81.036 149.16,102.963C134.476,125.036 138.151,143.384 146.489,154.857C154.827,166.331 170.095,169.036 184.941,151.857C188.695,147.514 196,136.862 196,136.862L553,136.862L553,137L910,137C910,137 917.305,147.652 921.059,151.996C935.905,169.174 951.173,166.469 959.511,154.996C967.849,143.522 971.524,125.174 956.84,103.101C970.714,81.174 967.849,62.68 959.511,51.206C951.173,39.732 933.476,38.174 921.059,54.206C917.503,58.796 910,70 910,70L553,70" style="fill:#fff;stroke:#000;stroke-width:3.56px;"/></g><g transform="matrix(0.873485,-0.873485,0.707107,0.707107,-15.9721,950.033)"><path d="M553,69.862L196,69.862C196,69.862 188.497,58.658 184.941,54.068C172.524,38.036 154.827,39.594 146.489,51.068C138.151,62.542 135.286,81.036 149.16,102.963C134.476,125.036 138.151,143.384 146.489,154.857C154.827,166.331 170.095,169.036 184.941,151.857C188.695,147.514 196,136.862 196,136.862L553,136.862L553,137L910,137C910,137 917.305,147.652 921.059,151.996C935.905,169.174 951.173,166.469 959.511,154.996C967.849,143.522 971.524,125.174 956.84,103.101C970.714,81.174 967.849,62.68 959.511,51.206C951.173,39.732 933.476,38.174 921.059,54.206C917.503,58.796 910,70 910,70L553,70" style="fill:#fff;stroke:#000;stroke-width:3.56px;"/></g></g><path d="M540,-0L445.184,540L636.184,540L540,-0Z"/><g transform="matrix(6.12323e-17,1,-1,6.12323e-17,1080,-0.68434)"><path d="M540,-0L445.184,540L636.184,540L540,-0Z"/></g><g transform="matrix(-1,1.22465e-16,-1.22465e-16,-1,1081.37,1080)"><path d="M540,-0L445.184,540L636.184,540L540,-0Z"/></g><g transform="matrix(-1.83697e-16,-1,1,-1.83697e-16,1.13687e-13,1080.68)"><path d="M540,-0L445.184,540L636.184,540L540,-0Z"/></g></g></g><g id="MMXXIII-with-acm-reflections-projections" serif:id="MMXXIII with acm reflections projections"><g transform="matrix(6.03782,35.4901,-35.4901,6.03782,126.497,596.557)"><path d="M0.788,-0.007C0.788,-0 0.781,0.003 0.768,0.003L0.761,0.003C0.746,0.003 0.721,0.003 0.684,0.002C0.647,0.001 0.619,0.001 0.601,0.001C0.594,0.001 0.578,0.001 0.555,0.002L0.438,0.002C0.429,0.002 0.424,-0.001 0.424,-0.007C0.424,-0.013 0.429,-0.016 0.438,-0.016L0.472,-0.015C0.503,-0.014 0.521,-0.02 0.528,-0.031C0.53,-0.034 0.531,-0.054 0.531,-0.091L0.53,-0.633C0.509,-0.578 0.481,-0.49 0.446,-0.369L0.359,-0.063C0.348,-0.026 0.34,-0.007 0.333,-0.007C0.326,-0.007 0.319,-0.016 0.313,-0.035C0.311,-0.041 0.29,-0.105 0.249,-0.227C0.234,-0.273 0.192,-0.402 0.124,-0.614L0.124,-0.097C0.124,-0.067 0.124,-0.049 0.125,-0.044C0.126,-0.038 0.129,-0.033 0.134,-0.029C0.144,-0.02 0.161,-0.016 0.185,-0.017C0.209,-0.018 0.221,-0.014 0.221,-0.006C0.221,-0.001 0.216,0.001 0.206,0.001L0.117,-0.001C0.102,-0.002 0.084,-0.001 0.064,-0C0.037,0.001 0.019,0.002 0.01,0.002C-0.004,0.002 -0.011,-0.001 -0.011,-0.007C-0.011,-0.012 -0.005,-0.015 0.006,-0.015C0.033,-0.015 0.049,-0.015 0.054,-0.016C0.075,-0.019 0.087,-0.026 0.09,-0.039C0.092,-0.047 0.093,-0.064 0.093,-0.089L0.093,-0.566C0.093,-0.619 0.09,-0.651 0.084,-0.66C0.077,-0.669 0.053,-0.673 0.012,-0.673C0.001,-0.673 -0.004,-0.676 -0.004,-0.682C-0.004,-0.689 0.002,-0.692 0.013,-0.691L0.04,-0.69L0.229,-0.691C0.231,-0.691 0.235,-0.691 0.24,-0.69C0.297,-0.505 0.345,-0.352 0.384,-0.23L0.519,-0.691L0.54,-0.691L0.672,-0.69L0.689,-0.69C0.699,-0.691 0.708,-0.691 0.716,-0.691L0.762,-0.691C0.775,-0.691 0.782,-0.688 0.782,-0.682C0.782,-0.675 0.778,-0.672 0.77,-0.673L0.747,-0.674C0.719,-0.675 0.7,-0.673 0.691,-0.666C0.681,-0.659 0.676,-0.646 0.676,-0.627C0.676,-0.622 0.676,-0.61 0.677,-0.592C0.678,-0.574 0.678,-0.49 0.678,-0.341L0.678,-0.062C0.678,-0.038 0.684,-0.024 0.697,-0.021C0.709,-0.017 0.727,-0.015 0.752,-0.016C0.776,-0.017 0.788,-0.014 0.788,-0.007Z" style="fill:#3c0000;fill-opacity:0.69;fill-rule:nonzero;"/></g><g transform="matrix(9.37851,34.7569,-34.7569,9.37851,133.629,635.262)"><path d="M0.788,-0.007C0.788,-0 0.781,0.003 0.768,0.003L0.761,0.003C0.746,0.003 0.721,0.003 0.684,0.002C0.647,0.001 0.619,0.001 0.601,0.001C0.594,0.001 0.578,0.001 0.555,0.002L0.438,0.002C0.429,0.002 0.424,-0.001 0.424,-0.007C0.424,-0.013 0.429,-0.016 0.438,-0.016L0.472,-0.015C0.503,-0.014 0.521,-0.02 0.528,-0.031C0.53,-0.034 0.531,-0.054 0.531,-0.091L0.53,-0.633C0.509,-0.578 0.481,-0.49 0.446,-0.369L0.359,-0.063C0.348,-0.026 0.34,-0.007 0.333,-0.007C0.326,-0.007 0.319,-0.016 0.313,-0.035C0.311,-0.041 0.29,-0.105 0.249,-0.227C0.234,-0.273 0.192,-0.402 0.124,-0.614L0.124,-0.097C0.124,-0.067 0.124,-0.049 0.125,-0.044C0.126,-0.038 0.129,-0.033 0.134,-0.029C0.144,-0.02 0.161,-0.016 0.185,-0.017C0.209,-0.018 0.221,-0.014 0.221,-0.006C0.221,-0.001 0.216,0.001 0.206,0.001L0.117,-0.001C0.102,-0.002 0.084,-0.001 0.064,-0C0.037,0.001 0.019,0.002 0.01,0.002C-0.004,0.002 -0.011,-0.001 -0.011,-0.007C-0.011,-0.012 -0.005,-0.015 0.006,-0.015C0.033,-0.015 0.049,-0.015 0.054,-0.016C0.075,-0.019 0.087,-0.026 0.09,-0.039C0.092,-0.047 0.093,-0.064 0.093,-0.089L0.093,-0.566C0.093,-0.619 0.09,-0.651 0.084,-0.66C0.077,-0.669 0.053,-0.673 0.012,-0.673C0.001,-0.673 -0.004,-0.676 -0.004,-0.682C-0.004,-0.689 0.002,-0.692 0.013,-0.691L0.04,-0.69L0.229,-0.691C0.231,-0.691 0.235,-0.691 0.24,-0.69C0.297,-0.505 0.345,-0.352 0.384,-0.23L0.519,-0.691L0.54,-0.691L0.672,-0.69L0.689,-0.69C0.699,-0.691 0.708,-0.691 0.716,-0.691L0.762,-0.691C0.775,-0.691 0.782,-0.688 0.782,-0.682C0.782,-0.675 0.778,-0.672 0.77,-0.673L0.747,-0.674C0.719,-0.675 0.7,-0.673 0.691,-0.666C0.681,-0.659 0.676,-0.646 0.676,-0.627C0.676,-0.622 0.676,-0.61 0.677,-0.592C0.678,-0.574 0.678,-0.49 0.678,-0.341L0.678,-0.062C0.678,-0.038 0.684,-0.024 0.697,-0.021C0.709,-0.017 0.727,-0.015 0.752,-0.016C0.776,-0.017 0.788,-0.014 0.788,-0.007Z" style="fill:#3c0000;fill-opacity:0.69;fill-rule:nonzero;"/></g><g transform="matrix(12.5491,33.742,-33.742,12.5491,144.499,673.265)"><path d="M0.71,-0.01C0.71,-0.003 0.701,-0 0.682,-0C0.679,-0 0.675,-0 0.668,-0.001L0.482,-0.001C0.45,-0.001 0.425,-0.001 0.406,-0C0.387,0.001 0.371,0.001 0.357,0.001C0.348,0.001 0.343,-0.002 0.343,-0.009C0.343,-0.014 0.346,-0.018 0.353,-0.019C0.36,-0.02 0.383,-0.02 0.422,-0.02C0.44,-0.02 0.449,-0.025 0.449,-0.035C0.449,-0.044 0.436,-0.071 0.41,-0.116C0.389,-0.153 0.358,-0.209 0.317,-0.283C0.314,-0.288 0.31,-0.295 0.304,-0.305C0.281,-0.27 0.248,-0.219 0.207,-0.152C0.165,-0.085 0.144,-0.047 0.144,-0.038C0.144,-0.027 0.15,-0.022 0.163,-0.021C0.171,-0.02 0.192,-0.02 0.226,-0.019C0.237,-0.019 0.242,-0.016 0.242,-0.01C0.242,-0.002 0.233,0.002 0.216,0.002L0.104,-0L0.094,-0C0.087,0.001 0.081,0.001 0.075,0.001L0.016,0.002C0.003,0.002 -0.004,-0.001 -0.004,-0.007C-0.004,-0.012 0.002,-0.015 0.015,-0.016C0.05,-0.018 0.076,-0.026 0.095,-0.04C0.113,-0.053 0.133,-0.08 0.156,-0.121C0.163,-0.134 0.175,-0.153 0.191,-0.178C0.239,-0.253 0.271,-0.304 0.288,-0.332C0.278,-0.352 0.255,-0.395 0.219,-0.461L0.161,-0.569C0.138,-0.612 0.123,-0.639 0.116,-0.649C0.109,-0.658 0.099,-0.665 0.087,-0.67C0.084,-0.671 0.064,-0.672 0.027,-0.674C0.017,-0.674 0.012,-0.677 0.012,-0.682C0.012,-0.689 0.02,-0.692 0.036,-0.692C0.038,-0.692 0.044,-0.692 0.053,-0.691C0.062,-0.69 0.071,-0.69 0.078,-0.69L0.231,-0.688C0.256,-0.688 0.283,-0.689 0.314,-0.69C0.327,-0.691 0.338,-0.691 0.347,-0.691L0.356,-0.691C0.367,-0.691 0.372,-0.688 0.372,-0.682C0.372,-0.677 0.37,-0.674 0.365,-0.673C0.36,-0.672 0.349,-0.671 0.33,-0.671C0.297,-0.671 0.281,-0.663 0.281,-0.648C0.281,-0.638 0.298,-0.602 0.331,-0.54C0.342,-0.52 0.36,-0.488 0.385,-0.443C0.472,-0.564 0.516,-0.635 0.516,-0.655C0.516,-0.668 0.504,-0.674 0.479,-0.674L0.454,-0.674C0.445,-0.674 0.441,-0.677 0.441,-0.682C0.441,-0.685 0.442,-0.688 0.445,-0.69C0.448,-0.691 0.454,-0.692 0.465,-0.692C0.475,-0.692 0.49,-0.692 0.51,-0.691C0.53,-0.69 0.545,-0.689 0.555,-0.689C0.578,-0.689 0.599,-0.69 0.616,-0.691C0.625,-0.692 0.633,-0.692 0.64,-0.692C0.653,-0.692 0.659,-0.689 0.659,-0.682C0.659,-0.677 0.649,-0.675 0.628,-0.674C0.598,-0.673 0.578,-0.669 0.568,-0.662C0.557,-0.654 0.54,-0.631 0.517,-0.592C0.496,-0.557 0.477,-0.527 0.46,-0.503L0.399,-0.415C0.448,-0.328 0.508,-0.215 0.58,-0.077C0.594,-0.05 0.607,-0.033 0.618,-0.028C0.628,-0.022 0.652,-0.019 0.687,-0.02C0.702,-0.02 0.71,-0.017 0.71,-0.01Z" style="fill:#3c0000;fill-opacity:0.69;fill-rule:nonzero;"/></g><g transform="matrix(15.4619,32.5105,-32.5105,15.4619,157.646,707.225)"><path d="M0.71,-0.01C0.71,-0.003 0.701,-0 0.682,-0C0.679,-0 0.675,-0 0.668,-0.001L0.482,-0.001C0.45,-0.001 0.425,-0.001 0.406,-0C0.387,0.001 0.371,0.001 0.357,0.001C0.348,0.001 0.343,-0.002 0.343,-0.009C0.343,-0.014 0.346,-0.018 0.353,-0.019C0.36,-0.02 0.383,-0.02 0.422,-0.02C0.44,-0.02 0.449,-0.025 0.449,-0.035C0.449,-0.044 0.436,-0.071 0.41,-0.116C0.389,-0.153 0.358,-0.209 0.317,-0.283C0.314,-0.288 0.31,-0.295 0.304,-0.305C0.281,-0.27 0.248,-0.219 0.207,-0.152C0.165,-0.085 0.144,-0.047 0.144,-0.038C0.144,-0.027 0.15,-0.022 0.163,-0.021C0.171,-0.02 0.192,-0.02 0.226,-0.019C0.237,-0.019 0.242,-0.016 0.242,-0.01C0.242,-0.002 0.233,0.002 0.216,0.002L0.104,-0L0.094,-0C0.087,0.001 0.081,0.001 0.075,0.001L0.016,0.002C0.003,0.002 -0.004,-0.001 -0.004,-0.007C-0.004,-0.012 0.002,-0.015 0.015,-0.016C0.05,-0.018 0.076,-0.026 0.095,-0.04C0.113,-0.053 0.133,-0.08 0.156,-0.121C0.163,-0.134 0.175,-0.153 0.191,-0.178C0.239,-0.253 0.271,-0.304 0.288,-0.332C0.278,-0.352 0.255,-0.395 0.219,-0.461L0.161,-0.569C0.138,-0.612 0.123,-0.639 0.116,-0.649C0.109,-0.658 0.099,-0.665 0.087,-0.67C0.084,-0.671 0.064,-0.672 0.027,-0.674C0.017,-0.674 0.012,-0.677 0.012,-0.682C0.012,-0.689 0.02,-0.692 0.036,-0.692C0.038,-0.692 0.044,-0.692 0.053,-0.691C0.062,-0.69 0.071,-0.69 0.078,-0.69L0.231,-0.688C0.256,-0.688 0.283,-0.689 0.314,-0.69C0.327,-0.691 0.338,-0.691 0.347,-0.691L0.356,-0.691C0.367,-0.691 0.372,-0.688 0.372,-0.682C0.372,-0.677 0.37,-0.674 0.365,-0.673C0.36,-0.672 0.349,-0.671 0.33,-0.671C0.297,-0.671 0.281,-0.663 0.281,-0.648C0.281,-0.638 0.298,-0.602 0.331,-0.54C0.342,-0.52 0.36,-0.488 0.385,-0.443C0.472,-0.564 0.516,-0.635 0.516,-0.655C0.516,-0.668 0.504,-0.674 0.479,-0.674L0.454,-0.674C0.445,-0.674 0.441,-0.677 0.441,-0.682C0.441,-0.685 0.442,-0.688 0.445,-0.69C0.448,-0.691 0.454,-0.692 0.465,-0.692C0.475,-0.692 0.49,-0.692 0.51,-0.691C0.53,-0.69 0.545,-0.689 0.555,-0.689C0.578,-0.689 0.599,-0.69 0.616,-0.691C0.625,-0.692 0.633,-0.692 0.64,-0.692C0.653,-0.692 0.659,-0.689 0.659,-0.682C0.659,-0.677 0.649,-0.675 0.628,-0.674C0.598,-0.673 0.578,-0.669 0.568,-0.662C0.557,-0.654 0.54,-0.631 0.517,-0.592C0.496,-0.557 0.477,-0.527 0.46,-0.503L0.399,-0.415C0.448,-0.328 0.508,-0.215 0.58,-0.077C0.594,-0.05 0.607,-0.033 0.618,-0.028C0.628,-0.022 0.652,-0.019 0.687,-0.02C0.702,-0.02 0.71,-0.017 0.71,-0.01Z" style="fill:#3c0000;fill-opacity:0.69;fill-rule:nonzero;"/></g><g transform="matrix(17.7748,31.3059,-31.3059,17.7748,174.061,740.208)"><path d="M0.326,-0.007C0.326,-0.002 0.322,0.001 0.313,0.001C0.308,0.001 0.304,0.001 0.3,-0C0.26,-0.002 0.226,-0.003 0.197,-0.003C0.167,-0.003 0.123,-0.002 0.065,-0C0.046,0.001 0.031,0.001 0.022,0.001C0.012,0.001 0.007,-0.002 0.007,-0.008C0.007,-0.011 0.009,-0.013 0.013,-0.014C0.016,-0.015 0.029,-0.015 0.051,-0.016C0.072,-0.02 0.084,-0.026 0.087,-0.035C0.09,-0.043 0.092,-0.07 0.092,-0.115L0.092,-0.633C0.091,-0.645 0.091,-0.651 0.091,-0.65C0.091,-0.667 0.074,-0.675 0.041,-0.675C0.022,-0.675 0.013,-0.677 0.013,-0.682C0.013,-0.687 0.014,-0.689 0.017,-0.69C0.02,-0.691 0.028,-0.691 0.043,-0.691C0.036,-0.691 0.048,-0.691 0.079,-0.69C0.11,-0.689 0.136,-0.689 0.158,-0.689L0.209,-0.689C0.22,-0.689 0.235,-0.69 0.255,-0.691C0.274,-0.692 0.288,-0.692 0.296,-0.692L0.306,-0.692C0.315,-0.692 0.319,-0.689 0.319,-0.684C0.319,-0.68 0.318,-0.678 0.315,-0.677C0.312,-0.676 0.301,-0.675 0.284,-0.674C0.263,-0.673 0.251,-0.668 0.246,-0.661L0.243,-0.642L0.243,-0.077C0.243,-0.048 0.246,-0.031 0.253,-0.026C0.259,-0.021 0.28,-0.017 0.317,-0.015C0.323,-0.014 0.326,-0.012 0.326,-0.007Z" style="fill:#3c0000;fill-opacity:0.69;fill-rule:nonzero;"/></g><g transform="matrix(19.5491,30.2297,-30.2297,19.5491,186.24,760.953)"><path d="M0.326,-0.007C0.326,-0.002 0.322,0.001 0.313,0.001C0.308,0.001 0.304,0.001 0.3,-0C0.26,-0.002 0.226,-0.003 0.197,-0.003C0.167,-0.003 0.123,-0.002 0.065,-0C0.046,0.001 0.031,0.001 0.022,0.001C0.012,0.001 0.007,-0.002 0.007,-0.008C0.007,-0.011 0.009,-0.013 0.013,-0.014C0.016,-0.015 0.029,-0.015 0.051,-0.016C0.072,-0.02 0.084,-0.026 0.087,-0.035C0.09,-0.043 0.092,-0.07 0.092,-0.115L0.092,-0.633C0.091,-0.645 0.091,-0.651 0.091,-0.65C0.091,-0.667 0.074,-0.675 0.041,-0.675C0.022,-0.675 0.013,-0.677 0.013,-0.682C0.013,-0.687 0.014,-0.689 0.017,-0.69C0.02,-0.691 0.028,-0.691 0.043,-0.691C0.036,-0.691 0.048,-0.691 0.079,-0.69C0.11,-0.689 0.136,-0.689 0.158,-0.689L0.209,-0.689C0.22,-0.689 0.235,-0.69 0.255,-0.691C0.274,-0.692 0.288,-0.692 0.296,-0.692L0.306,-0.692C0.315,-0.692 0.319,-0.689 0.319,-0.684C0.319,-0.68 0.318,-0.678 0.315,-0.677C0.312,-0.676 0.301,-0.675 0.284,-0.674C0.263,-0.673 0.251,-0.668 0.246,-0.661L0.243,-0.642L0.243,-0.077C0.243,-0.048 0.246,-0.031 0.253,-0.026C0.259,-0.021 0.28,-0.017 0.317,-0.015C0.323,-0.014 0.326,-0.012 0.326,-0.007Z" style="fill:#3c0000;fill-opacity:0.69;fill-rule:nonzero;"/></g><g transform="matrix(21.261,29.0512,-29.0512,21.261,199.653,781.047)"><path d="M0.326,-0.007C0.326,-0.002 0.322,0.001 0.313,0.001C0.308,0.001 0.304,0.001 0.3,-0C0.26,-0.002 0.226,-0.003 0.197,-0.003C0.167,-0.003 0.123,-0.002 0.065,-0C0.046,0.001 0.031,0.001 0.022,0.001C0.012,0.001 0.007,-0.002 0.007,-0.008C0.007,-0.011 0.009,-0.013 0.013,-0.014C0.016,-0.015 0.029,-0.015 0.051,-0.016C0.072,-0.02 0.084,-0.026 0.087,-0.035C0.09,-0.043 0.092,-0.07 0.092,-0.115L0.092,-0.633C0.091,-0.645 0.091,-0.651 0.091,-0.65C0.091,-0.667 0.074,-0.675 0.041,-0.675C0.022,-0.675 0.013,-0.677 0.013,-0.682C0.013,-0.687 0.014,-0.689 0.017,-0.69C0.02,-0.691 0.028,-0.691 0.043,-0.691C0.036,-0.691 0.048,-0.691 0.079,-0.69C0.11,-0.689 0.136,-0.689 0.158,-0.689L0.209,-0.689C0.22,-0.689 0.235,-0.69 0.255,-0.691C0.274,-0.692 0.288,-0.692 0.296,-0.692L0.306,-0.692C0.315,-0.692 0.319,-0.689 0.319,-0.684C0.319,-0.68 0.318,-0.678 0.315,-0.677C0.312,-0.676 0.301,-0.675 0.284,-0.674C0.263,-0.673 0.251,-0.668 0.246,-0.661L0.243,-0.642L0.243,-0.077C0.243,-0.048 0.246,-0.031 0.253,-0.026C0.259,-0.021 0.28,-0.017 0.317,-0.015C0.323,-0.014 0.326,-0.012 0.326,-0.007Z" style="fill:#3c0000;fill-opacity:0.69;fill-rule:nonzero;"/></g><g transform="matrix(24.5899,17.1853,-17.1853,24.5899,291.478,872.622)"><path d="M0.935,-0.683C0.935,-0.678 0.93,-0.675 0.92,-0.674C0.89,-0.673 0.871,-0.669 0.863,-0.664C0.855,-0.658 0.846,-0.641 0.836,-0.613C0.83,-0.598 0.821,-0.574 0.809,-0.543C0.8,-0.517 0.787,-0.477 0.768,-0.423C0.759,-0.398 0.745,-0.359 0.726,-0.308L0.677,-0.171C0.642,-0.074 0.623,-0.019 0.619,-0.004C0.616,0.005 0.613,0.009 0.61,0.009C0.606,0.009 0.603,0.006 0.6,-0.001C0.597,-0.007 0.59,-0.03 0.577,-0.069C0.56,-0.121 0.536,-0.186 0.504,-0.263L0.47,-0.345C0.403,-0.202 0.355,-0.089 0.326,-0.005C0.323,0.004 0.319,0.008 0.315,0.008C0.312,0.008 0.304,-0.01 0.29,-0.045L0.168,-0.363C0.139,-0.443 0.101,-0.538 0.055,-0.649C0.05,-0.661 0.043,-0.668 0.032,-0.671C0.026,-0.673 0.014,-0.674 -0.003,-0.674C-0.02,-0.674 -0.029,-0.677 -0.029,-0.683C-0.029,-0.688 -0.024,-0.691 -0.015,-0.691C-0.016,-0.691 -0.005,-0.691 0.018,-0.691C0.041,-0.69 0.061,-0.69 0.078,-0.69L0.116,-0.69L0.217,-0.692C0.22,-0.692 0.226,-0.692 0.234,-0.693L0.248,-0.693C0.257,-0.693 0.261,-0.69 0.261,-0.683C0.261,-0.677 0.25,-0.674 0.229,-0.675C0.218,-0.675 0.212,-0.672 0.212,-0.666C0.212,-0.663 0.213,-0.66 0.214,-0.657C0.229,-0.616 0.251,-0.556 0.281,-0.475L0.384,-0.209L0.454,-0.369C0.444,-0.398 0.425,-0.451 0.396,-0.527C0.391,-0.539 0.383,-0.557 0.374,-0.582C0.372,-0.588 0.369,-0.597 0.364,-0.61C0.353,-0.641 0.343,-0.659 0.336,-0.666C0.329,-0.672 0.313,-0.675 0.29,-0.675C0.283,-0.676 0.28,-0.679 0.28,-0.684C0.28,-0.69 0.286,-0.693 0.299,-0.693C0.297,-0.693 0.301,-0.693 0.31,-0.692C0.319,-0.691 0.333,-0.691 0.354,-0.691L0.703,-0.692C0.716,-0.693 0.722,-0.69 0.722,-0.683C0.722,-0.678 0.717,-0.675 0.707,-0.675C0.66,-0.676 0.632,-0.668 0.625,-0.651C0.614,-0.633 0.59,-0.582 0.554,-0.498C0.577,-0.438 0.615,-0.343 0.666,-0.213C0.677,-0.24 0.688,-0.271 0.7,-0.304C0.711,-0.332 0.728,-0.38 0.752,-0.447C0.767,-0.492 0.78,-0.528 0.791,-0.556C0.809,-0.603 0.818,-0.634 0.818,-0.648C0.818,-0.661 0.811,-0.67 0.798,-0.673C0.793,-0.674 0.781,-0.675 0.762,-0.675C0.751,-0.675 0.746,-0.678 0.746,-0.683C0.746,-0.688 0.751,-0.691 0.761,-0.691L0.84,-0.689C0.874,-0.688 0.9,-0.689 0.917,-0.691L0.925,-0.691C0.932,-0.691 0.935,-0.688 0.935,-0.683ZM0.592,-0.648C0.592,-0.666 0.576,-0.675 0.544,-0.675C0.511,-0.675 0.495,-0.669 0.495,-0.657C0.495,-0.64 0.511,-0.598 0.543,-0.529C0.576,-0.597 0.592,-0.637 0.592,-0.648Z" style="fill:#3c0000;fill-opacity:0.69;fill-rule:nonzero;"/></g><g transform="matrix(25.682,15.5059,-15.5059,25.682,321.624,892.967)"><path d="M0.326,-0.007C0.326,-0.002 0.322,0.001 0.313,0.001C0.308,0.001 0.304,0.001 0.3,-0C0.26,-0.002 0.226,-0.003 0.197,-0.003C0.167,-0.003 0.123,-0.002 0.065,-0C0.046,0.001 0.031,0.001 0.022,0.001C0.012,0.001 0.007,-0.002 0.007,-0.008C0.007,-0.011 0.009,-0.013 0.013,-0.014C0.016,-0.015 0.029,-0.015 0.051,-0.016C0.072,-0.02 0.084,-0.026 0.087,-0.035C0.09,-0.043 0.092,-0.07 0.092,-0.115L0.092,-0.633C0.091,-0.645 0.091,-0.651 0.091,-0.65C0.091,-0.667 0.074,-0.675 0.041,-0.675C0.022,-0.675 0.013,-0.677 0.013,-0.682C0.013,-0.687 0.014,-0.689 0.017,-0.69C0.02,-0.691 0.028,-0.691 0.043,-0.691C0.036,-0.691 0.048,-0.691 0.079,-0.69C0.11,-0.689 0.136,-0.689 0.158,-0.689L0.209,-0.689C0.22,-0.689 0.235,-0.69 0.255,-0.691C0.274,-0.692 0.288,-0.692 0.296,-0.692L0.306,-0.692C0.315,-0.692 0.319,-0.689 0.319,-0.684C0.319,-0.68 0.318,-0.678 0.315,-0.677C0.312,-0.676 0.301,-0.675 0.284,-0.674C0.263,-0.673 0.251,-0.668 0.246,-0.661L0.243,-0.642L0.243,-0.077C0.243,-0.048 0.246,-0.031 0.253,-0.026C0.259,-0.021 0.28,-0.017 0.317,-0.015C0.323,-0.014 0.326,-0.012 0.326,-0.007Z" style="fill:#3c0000;fill-opacity:0.69;fill-rule:nonzero;"/></g><g transform="matrix(26.5247,14.0158,-14.0158,26.5247,338.643,903.046)"><path d="M0.592,-0.506C0.592,-0.501 0.59,-0.498 0.585,-0.498C0.578,-0.498 0.571,-0.511 0.565,-0.537C0.553,-0.588 0.536,-0.623 0.515,-0.642C0.494,-0.661 0.46,-0.67 0.413,-0.67C0.395,-0.67 0.379,-0.669 0.366,-0.668L0.367,-0.06C0.368,-0.043 0.372,-0.033 0.381,-0.028C0.39,-0.023 0.413,-0.019 0.451,-0.016C0.458,-0.015 0.462,-0.012 0.462,-0.007C0.462,-0 0.457,0.003 0.446,0.003C0.444,0.003 0.439,0.003 0.431,0.002C0.421,0.001 0.413,0.001 0.406,0.001L0.303,-0.002L0.133,0.001C0.124,0.001 0.119,-0.002 0.119,-0.007C0.119,-0.011 0.12,-0.013 0.123,-0.014C0.126,-0.015 0.137,-0.015 0.156,-0.016C0.193,-0.017 0.212,-0.026 0.215,-0.042C0.216,-0.051 0.217,-0.118 0.217,-0.245L0.217,-0.668C0.21,-0.669 0.201,-0.669 0.191,-0.669C0.138,-0.669 0.099,-0.659 0.075,-0.64C0.05,-0.62 0.034,-0.585 0.027,-0.535C0.022,-0.506 0.016,-0.491 0.009,-0.491C0.003,-0.491 0,-0.495 0,-0.503C0,-0.508 0.001,-0.527 0.004,-0.558C0.009,-0.623 0.013,-0.668 0.014,-0.692L0.029,-0.692L0.102,-0.693C0.104,-0.693 0.127,-0.692 0.172,-0.691C0.216,-0.69 0.272,-0.689 0.341,-0.689C0.379,-0.689 0.413,-0.689 0.443,-0.69C0.473,-0.691 0.5,-0.691 0.525,-0.691C0.547,-0.691 0.564,-0.692 0.575,-0.693C0.577,-0.65 0.582,-0.594 0.59,-0.527C0.591,-0.516 0.592,-0.509 0.592,-0.506Z" style="fill:#3c0000;fill-opacity:0.69;fill-rule:nonzero;"/></g><g transform="matrix(27.4427,12.1202,-12.1202,27.4427,362.564,915.405)"><path d="M0.727,-0C0.727,0.004 0.724,0.006 0.718,0.006C0.713,0.006 0.709,0.006 0.705,0.005C0.682,0.001 0.616,-0.001 0.509,-0.001C0.499,-0.001 0.484,-0.001 0.463,-0L0.432,0.001C0.411,0.002 0.401,-0.001 0.401,-0.007C0.401,-0.012 0.409,-0.015 0.426,-0.016C0.441,-0.017 0.454,-0.02 0.465,-0.025C0.475,-0.029 0.481,-0.035 0.481,-0.042C0.482,-0.046 0.482,-0.057 0.483,-0.075L0.484,-0.125L0.484,-0.357L0.278,-0.356C0.266,-0.356 0.254,-0.356 0.243,-0.357L0.245,-0.048C0.246,-0.031 0.259,-0.02 0.285,-0.017C0.306,-0.014 0.318,-0.013 0.321,-0.012C0.324,-0.011 0.326,-0.008 0.326,-0.005C0.326,-0.001 0.323,0.001 0.316,0.001C0.307,0.001 0.284,0 0.247,-0.001C0.21,-0.002 0.194,-0.003 0.2,-0.003C0.196,-0.003 0.175,-0.002 0.139,-0.001C0.101,0.001 0.066,0.002 0.033,0.002L0.023,0.002C0.011,0.002 0.005,-0.001 0.005,-0.007C0.005,-0.012 0.01,-0.015 0.019,-0.015C0.05,-0.015 0.072,-0.019 0.084,-0.027C0.089,-0.03 0.092,-0.048 0.092,-0.08L0.092,-0.632C0.092,-0.653 0.086,-0.666 0.075,-0.671C0.064,-0.675 0.045,-0.677 0.02,-0.677C0.011,-0.677 0.007,-0.68 0.007,-0.685C0.007,-0.688 0.011,-0.69 0.018,-0.691C0.015,-0.691 0.04,-0.691 0.093,-0.69L0.217,-0.689C0.242,-0.689 0.268,-0.69 0.293,-0.691C0.304,-0.692 0.311,-0.692 0.313,-0.692C0.322,-0.692 0.327,-0.689 0.327,-0.682C0.327,-0.677 0.325,-0.675 0.322,-0.674C0.318,-0.673 0.306,-0.672 0.287,-0.671C0.267,-0.67 0.255,-0.666 0.25,-0.659C0.245,-0.651 0.243,-0.637 0.243,-0.617L0.243,-0.381L0.267,-0.38C0.334,-0.377 0.406,-0.378 0.484,-0.382L0.484,-0.605C0.484,-0.65 0.467,-0.673 0.433,-0.673C0.41,-0.673 0.399,-0.676 0.399,-0.683C0.399,-0.689 0.403,-0.692 0.412,-0.692L0.422,-0.692C0.433,-0.692 0.452,-0.692 0.479,-0.691C0.506,-0.69 0.535,-0.689 0.567,-0.689L0.643,-0.689L0.717,-0.692C0.724,-0.692 0.727,-0.69 0.727,-0.686C0.727,-0.681 0.715,-0.678 0.69,-0.676C0.665,-0.674 0.65,-0.669 0.644,-0.661C0.638,-0.652 0.635,-0.631 0.635,-0.598L0.635,-0.106C0.635,-0.063 0.641,-0.037 0.652,-0.028C0.663,-0.019 0.681,-0.013 0.708,-0.012C0.721,-0.011 0.727,-0.007 0.727,-0Z" style="fill:#3c0000;fill-opacity:0.69;fill-rule:nonzero;"/></g><g transform="matrix(28.6041,9.04477,-9.04477,28.6041,404.987,932.675)"><path d="M0.685,-0.01C0.685,-0.005 0.683,-0.002 0.678,-0.001C0.673,0.001 0.66,0.001 0.639,0.001C0.634,0.001 0.619,0.001 0.594,-0C0.545,-0.001 0.511,-0.002 0.492,-0.002C0.47,-0.002 0.451,-0.002 0.434,-0.001C0.401,0 0.378,0.001 0.366,0.001C0.348,0.001 0.339,-0.002 0.339,-0.009C0.339,-0.016 0.358,-0.019 0.396,-0.02C0.405,-0.02 0.412,-0.021 0.417,-0.022C0.428,-0.023 0.433,-0.027 0.433,-0.034C0.433,-0.037 0.429,-0.051 0.421,-0.076L0.4,-0.141C0.396,-0.156 0.387,-0.183 0.374,-0.222L0.356,-0.222L0.278,-0.223C0.25,-0.224 0.22,-0.223 0.189,-0.222C0.183,-0.209 0.172,-0.179 0.155,-0.132L0.133,-0.067C0.13,-0.057 0.128,-0.049 0.128,-0.043C0.128,-0.032 0.135,-0.024 0.15,-0.021C0.153,-0.02 0.17,-0.019 0.199,-0.017C0.208,-0.016 0.213,-0.013 0.213,-0.008C0.213,-0.002 0.207,0.001 0.195,0.001L0.03,-0C0.026,0.001 0.022,0.001 0.017,0.001C0.008,0.001 0.003,-0.002 0.003,-0.009C0.003,-0.013 0.013,-0.016 0.034,-0.017C0.061,-0.018 0.078,-0.023 0.085,-0.032C0.092,-0.041 0.104,-0.069 0.121,-0.116C0.134,-0.149 0.152,-0.199 0.176,-0.264L0.297,-0.597C0.303,-0.612 0.311,-0.635 0.322,-0.666C0.329,-0.689 0.335,-0.7 0.339,-0.7C0.343,-0.7 0.35,-0.685 0.361,-0.654C0.374,-0.615 0.433,-0.459 0.537,-0.188C0.55,-0.153 0.564,-0.118 0.577,-0.082C0.588,-0.051 0.6,-0.033 0.611,-0.026C0.62,-0.021 0.64,-0.018 0.673,-0.019C0.681,-0.019 0.685,-0.016 0.685,-0.01ZM0.367,-0.244C0.366,-0.246 0.364,-0.252 0.36,-0.263C0.333,-0.34 0.314,-0.395 0.302,-0.426C0.299,-0.435 0.294,-0.447 0.288,-0.464L0.282,-0.482C0.27,-0.453 0.255,-0.414 0.238,-0.363C0.219,-0.306 0.205,-0.267 0.196,-0.244C0.202,-0.244 0.209,-0.244 0.218,-0.245L0.296,-0.245C0.311,-0.245 0.335,-0.245 0.367,-0.244Z" style="fill:#3c0000;fill-opacity:0.69;fill-rule:nonzero;"/></g><g transform="matrix(29.1679,7.01672,-7.01672,29.1679,433.405,941.297)"><path d="M0.601,-0.219L0.6,-0.202C0.6,-0.199 0.598,-0.178 0.595,-0.139C0.592,-0.11 0.591,-0.087 0.591,-0.071C0.591,-0.051 0.591,-0.034 0.592,-0.021C0.593,-0.016 0.593,-0.011 0.593,-0.004C0.593,0.003 0.591,0.007 0.588,0.007C0.585,0.007 0.581,0.004 0.577,-0.003C0.562,-0.027 0.547,-0.043 0.53,-0.05C0.48,-0.007 0.426,0.014 0.369,0.014C0.282,0.014 0.205,-0.019 0.138,-0.084C0.067,-0.153 0.032,-0.241 0.032,-0.346C0.032,-0.448 0.064,-0.533 0.128,-0.602C0.191,-0.67 0.271,-0.704 0.366,-0.704C0.41,-0.704 0.449,-0.694 0.484,-0.674C0.504,-0.663 0.519,-0.657 0.528,-0.657C0.542,-0.657 0.555,-0.663 0.567,-0.676C0.576,-0.685 0.581,-0.69 0.583,-0.69C0.586,-0.69 0.587,-0.688 0.587,-0.683C0.587,-0.681 0.587,-0.678 0.586,-0.674C0.582,-0.651 0.58,-0.623 0.58,-0.59C0.58,-0.587 0.58,-0.573 0.581,-0.549L0.581,-0.48C0.581,-0.468 0.578,-0.462 0.571,-0.462C0.566,-0.462 0.56,-0.475 0.555,-0.501C0.531,-0.621 0.476,-0.681 0.39,-0.681C0.322,-0.681 0.273,-0.637 0.242,-0.549C0.221,-0.489 0.21,-0.417 0.21,-0.333C0.21,-0.208 0.235,-0.117 0.286,-0.059C0.313,-0.028 0.348,-0.013 0.391,-0.013C0.485,-0.013 0.547,-0.076 0.576,-0.201C0.581,-0.222 0.586,-0.232 0.592,-0.232C0.599,-0.232 0.602,-0.228 0.601,-0.219Z" style="fill:#3c0000;fill-opacity:0.69;fill-rule:nonzero;"/></g><g transform="matrix(29.6061,4.84543,-4.84543,29.6061,460.977,947.657)"><path d="M0.788,-0.007C0.788,-0 0.781,0.003 0.768,0.003L0.761,0.003C0.746,0.003 0.721,0.003 0.684,0.002C0.647,0.001 0.619,0.001 0.601,0.001C0.594,0.001 0.578,0.001 0.555,0.002L0.438,0.002C0.429,0.002 0.424,-0.001 0.424,-0.007C0.424,-0.013 0.429,-0.016 0.438,-0.016L0.472,-0.015C0.503,-0.014 0.521,-0.02 0.528,-0.031C0.53,-0.034 0.531,-0.054 0.531,-0.091L0.53,-0.633C0.509,-0.578 0.481,-0.49 0.446,-0.369L0.359,-0.063C0.348,-0.026 0.34,-0.007 0.333,-0.007C0.326,-0.007 0.319,-0.016 0.313,-0.035C0.311,-0.041 0.29,-0.105 0.249,-0.227C0.234,-0.273 0.192,-0.402 0.124,-0.614L0.124,-0.097C0.124,-0.067 0.124,-0.049 0.125,-0.044C0.126,-0.038 0.129,-0.033 0.134,-0.029C0.144,-0.02 0.161,-0.016 0.185,-0.017C0.209,-0.018 0.221,-0.014 0.221,-0.006C0.221,-0.001 0.216,0.001 0.206,0.001L0.117,-0.001C0.102,-0.002 0.084,-0.001 0.064,-0C0.037,0.001 0.019,0.002 0.01,0.002C-0.004,0.002 -0.011,-0.001 -0.011,-0.007C-0.011,-0.012 -0.005,-0.015 0.006,-0.015C0.033,-0.015 0.049,-0.015 0.054,-0.016C0.075,-0.019 0.087,-0.026 0.09,-0.039C0.092,-0.047 0.093,-0.064 0.093,-0.089L0.093,-0.566C0.093,-0.619 0.09,-0.651 0.084,-0.66C0.077,-0.669 0.053,-0.673 0.012,-0.673C0.001,-0.673 -0.004,-0.676 -0.004,-0.682C-0.004,-0.689 0.002,-0.692 0.013,-0.691L0.04,-0.69L0.229,-0.691C0.231,-0.691 0.235,-0.691 0.24,-0.69C0.297,-0.505 0.345,-0.352 0.384,-0.23L0.519,-0.691L0.54,-0.691L0.672,-0.69L0.689,-0.69C0.699,-0.691 0.708,-0.691 0.716,-0.691L0.762,-0.691C0.775,-0.691 0.782,-0.688 0.782,-0.682C0.782,-0.675 0.778,-0.672 0.77,-0.673L0.747,-0.674C0.719,-0.675 0.7,-0.673 0.691,-0.666C0.681,-0.659 0.676,-0.646 0.676,-0.627C0.676,-0.622 0.676,-0.61 0.677,-0.592C0.678,-0.574 0.678,-0.49 0.678,-0.341L0.678,-0.062C0.678,-0.038 0.684,-0.024 0.697,-0.021C0.709,-0.017 0.727,-0.015 0.752,-0.016C0.776,-0.017 0.788,-0.014 0.788,-0.007Z" style="fill:#3c0000;fill-opacity:0.69;fill-rule:nonzero;"/></g><g transform="matrix(21.7411,-3.36533,3.36533,21.7411,596.415,949.228)"><path d="M0.646,-0.039C0.646,-0.002 0.622,0.017 0.573,0.017C0.512,0.017 0.463,-0.002 0.426,-0.041C0.397,-0.071 0.381,-0.103 0.377,-0.137L0.367,-0.219C0.36,-0.271 0.348,-0.307 0.331,-0.328C0.313,-0.349 0.284,-0.359 0.245,-0.358L0.245,-0.131C0.245,-0.078 0.245,-0.05 0.246,-0.046C0.246,-0.035 0.251,-0.027 0.26,-0.023C0.269,-0.018 0.287,-0.016 0.313,-0.016C0.329,-0.016 0.337,-0.013 0.337,-0.007C0.337,-0.002 0.333,0.001 0.325,0.001L0.228,-0L0.212,-0C0.2,0.001 0.189,0.001 0.178,0.001L0.106,0.001C0.099,0.001 0.092,0.001 0.083,-0L0.069,-0L0.023,0.001C0.014,0.001 0.009,-0.002 0.009,-0.007C0.009,-0.013 0.023,-0.017 0.05,-0.018C0.073,-0.019 0.086,-0.025 0.09,-0.034C0.092,-0.039 0.093,-0.053 0.093,-0.076L0.093,-0.591C0.093,-0.626 0.092,-0.646 0.091,-0.653C0.09,-0.659 0.085,-0.664 0.078,-0.667C0.069,-0.671 0.054,-0.673 0.033,-0.673C0.018,-0.673 0.011,-0.676 0.011,-0.682C0.011,-0.687 0.014,-0.69 0.02,-0.691C0.026,-0.692 0.042,-0.692 0.068,-0.692L0.086,-0.692C0.098,-0.691 0.11,-0.691 0.121,-0.691L0.154,-0.691C0.155,-0.691 0.162,-0.691 0.175,-0.692L0.269,-0.692C0.362,-0.692 0.426,-0.685 0.46,-0.67C0.487,-0.659 0.508,-0.641 0.524,-0.618C0.54,-0.595 0.548,-0.569 0.548,-0.541C0.548,-0.477 0.515,-0.43 0.448,-0.399C0.419,-0.386 0.375,-0.376 0.318,-0.369L0.317,-0.363C0.39,-0.358 0.442,-0.339 0.475,-0.306C0.508,-0.272 0.527,-0.217 0.534,-0.142C0.539,-0.082 0.548,-0.045 0.559,-0.03C0.57,-0.015 0.582,-0.007 0.594,-0.007C0.604,-0.007 0.609,-0.01 0.609,-0.015C0.609,-0.018 0.605,-0.021 0.598,-0.026C0.59,-0.031 0.586,-0.037 0.586,-0.046C0.586,-0.064 0.596,-0.073 0.616,-0.073C0.636,-0.073 0.646,-0.062 0.646,-0.039ZM0.393,-0.544C0.393,-0.63 0.359,-0.673 0.291,-0.673C0.269,-0.673 0.255,-0.666 0.25,-0.651C0.247,-0.642 0.245,-0.605 0.245,-0.542L0.245,-0.376C0.297,-0.375 0.335,-0.388 0.358,-0.415C0.381,-0.442 0.393,-0.485 0.393,-0.544Z" style="fill:#3c0000;fill-opacity:0.69;fill-rule:nonzero;"/></g><g transform="matrix(21.552,-4.4172,4.4172,21.552,616.98,945.865)"><path d="M0.571,-0.175C0.571,-0.174 0.571,-0.143 0.57,-0.082C0.569,-0.05 0.569,-0.027 0.569,-0.013C0.568,0.001 0.568,0.008 0.568,0.007C0.392,-0.001 0.238,-0.003 0.106,-0L0.022,0.002C0.01,0.002 0.004,-0.001 0.004,-0.006C0.004,-0.01 0.006,-0.012 0.009,-0.013C0.012,-0.014 0.022,-0.015 0.039,-0.016C0.07,-0.018 0.087,-0.027 0.09,-0.043C0.091,-0.052 0.092,-0.061 0.092,-0.072L0.092,-0.579C0.092,-0.619 0.092,-0.641 0.091,-0.645C0.09,-0.656 0.087,-0.663 0.081,-0.667C0.075,-0.671 0.063,-0.673 0.044,-0.673C0.023,-0.673 0.013,-0.676 0.013,-0.682C0.013,-0.689 0.022,-0.692 0.041,-0.692C0.059,-0.692 0.084,-0.692 0.117,-0.693C0.24,-0.696 0.34,-0.696 0.418,-0.695L0.486,-0.694C0.501,-0.694 0.519,-0.695 0.54,-0.698L0.549,-0.589C0.552,-0.554 0.554,-0.533 0.554,-0.525C0.554,-0.518 0.551,-0.515 0.544,-0.515C0.537,-0.515 0.533,-0.524 0.531,-0.541C0.525,-0.587 0.507,-0.62 0.476,-0.642C0.444,-0.663 0.399,-0.673 0.338,-0.673C0.319,-0.673 0.287,-0.672 0.242,-0.67L0.242,-0.375C0.315,-0.374 0.362,-0.38 0.381,-0.391C0.4,-0.402 0.412,-0.43 0.419,-0.476C0.422,-0.501 0.427,-0.513 0.434,-0.513C0.44,-0.513 0.443,-0.507 0.443,-0.495C0.443,-0.483 0.442,-0.458 0.44,-0.421C0.439,-0.408 0.439,-0.391 0.439,-0.37C0.439,-0.313 0.44,-0.269 0.441,-0.24C0.442,-0.236 0.442,-0.231 0.442,-0.225C0.442,-0.217 0.439,-0.213 0.433,-0.213C0.428,-0.213 0.425,-0.215 0.424,-0.218C0.423,-0.221 0.421,-0.231 0.418,-0.25C0.411,-0.297 0.402,-0.327 0.391,-0.339C0.379,-0.35 0.352,-0.356 0.31,-0.356L0.242,-0.356L0.242,-0.019L0.306,-0.02C0.379,-0.021 0.424,-0.023 0.44,-0.025C0.46,-0.028 0.479,-0.035 0.498,-0.047C0.515,-0.06 0.526,-0.075 0.533,-0.09C0.539,-0.105 0.546,-0.134 0.553,-0.175C0.555,-0.185 0.558,-0.19 0.563,-0.19C0.568,-0.19 0.571,-0.185 0.571,-0.175Z" style="fill:#3c0000;fill-opacity:0.69;fill-rule:nonzero;"/></g><g transform="matrix(21.3138,-5.45165,5.45165,21.3138,636.466,941.689)"><path d="M0.557,-0.519C0.557,-0.514 0.555,-0.511 0.55,-0.511C0.546,-0.511 0.543,-0.513 0.542,-0.516C0.54,-0.519 0.537,-0.531 0.532,-0.55C0.519,-0.603 0.493,-0.639 0.455,-0.657C0.432,-0.668 0.392,-0.673 0.334,-0.673C0.307,-0.673 0.277,-0.672 0.242,-0.67L0.242,-0.364L0.271,-0.364C0.334,-0.364 0.373,-0.371 0.389,-0.384C0.404,-0.397 0.416,-0.434 0.424,-0.495C0.425,-0.504 0.429,-0.508 0.434,-0.508C0.439,-0.508 0.442,-0.503 0.442,-0.493C0.442,-0.496 0.442,-0.492 0.441,-0.48C0.44,-0.467 0.44,-0.447 0.44,-0.419L0.44,-0.354C0.44,-0.307 0.44,-0.277 0.441,-0.262C0.442,-0.247 0.442,-0.234 0.442,-0.223C0.442,-0.212 0.439,-0.207 0.433,-0.207C0.424,-0.207 0.419,-0.218 0.418,-0.239C0.415,-0.288 0.403,-0.319 0.382,-0.334C0.372,-0.341 0.354,-0.345 0.329,-0.345C0.295,-0.345 0.266,-0.345 0.242,-0.344L0.242,-0.102C0.242,-0.059 0.245,-0.034 0.252,-0.027C0.259,-0.02 0.282,-0.016 0.321,-0.016C0.333,-0.016 0.339,-0.013 0.339,-0.008C0.339,-0.002 0.333,0.001 0.32,0.001C0.305,0.001 0.288,0.001 0.267,-0C0.226,-0.001 0.179,-0.002 0.127,-0.002C0.09,-0.002 0.058,-0.001 0.03,0.001C0.026,0.002 0.021,0.002 0.016,0.002C0.008,0.002 0.004,-0.001 0.004,-0.007C0.004,-0.013 0.015,-0.016 0.036,-0.017C0.067,-0.018 0.085,-0.026 0.088,-0.039C0.091,-0.044 0.092,-0.054 0.092,-0.067L0.091,-0.647C0.09,-0.656 0.086,-0.663 0.08,-0.666C0.073,-0.669 0.061,-0.672 0.042,-0.673C0.023,-0.674 0.013,-0.677 0.013,-0.682C0.013,-0.689 0.02,-0.692 0.033,-0.692L0.052,-0.692C0.055,-0.692 0.08,-0.692 0.128,-0.693C0.181,-0.694 0.228,-0.695 0.269,-0.695C0.33,-0.696 0.381,-0.696 0.423,-0.695L0.492,-0.694C0.503,-0.694 0.519,-0.695 0.54,-0.697C0.545,-0.617 0.551,-0.562 0.556,-0.531C0.557,-0.527 0.557,-0.523 0.557,-0.519Z" style="fill:#3c0000;fill-opacity:0.69;fill-rule:nonzero;"/></g><g transform="matrix(21.0346,-6.44565,6.44565,21.0346,655.029,936.775)"><path d="M0.557,-0.169C0.557,-0.156 0.557,-0.146 0.556,-0.137C0.553,-0.108 0.552,-0.084 0.553,-0.066L0.554,0.005C0.469,0.002 0.314,-0 0.091,-0L0.049,-0C0.02,-0 0.005,-0.003 0.005,-0.008C0.005,-0.013 0.01,-0.016 0.019,-0.016C0.052,-0.017 0.074,-0.021 0.083,-0.03C0.089,-0.035 0.092,-0.051 0.092,-0.078L0.091,-0.62C0.091,-0.643 0.089,-0.657 0.085,-0.662C0.077,-0.672 0.065,-0.677 0.048,-0.676L0.023,-0.675C0.016,-0.675 0.012,-0.678 0.012,-0.683C0.012,-0.688 0.017,-0.691 0.026,-0.691C0.031,-0.691 0.037,-0.691 0.042,-0.69L0.296,-0.69C0.299,-0.691 0.303,-0.691 0.307,-0.691C0.314,-0.691 0.317,-0.688 0.317,-0.683C0.317,-0.677 0.308,-0.674 0.291,-0.674C0.266,-0.674 0.252,-0.671 0.248,-0.665C0.243,-0.659 0.241,-0.633 0.241,-0.586L0.241,-0.348C0.241,-0.299 0.242,-0.19 0.245,-0.021C0.258,-0.02 0.272,-0.02 0.288,-0.02C0.358,-0.02 0.406,-0.023 0.433,-0.028C0.475,-0.037 0.504,-0.058 0.519,-0.092C0.527,-0.109 0.534,-0.137 0.541,-0.175C0.543,-0.186 0.546,-0.191 0.55,-0.191C0.555,-0.191 0.557,-0.184 0.557,-0.169Z" style="fill:#3c0000;fill-opacity:0.69;fill-rule:nonzero;"/></g><g transform="matrix(20.7045,-7.43809,7.43809,20.7045,673.457,930.958)"><path d="M0.571,-0.175C0.571,-0.174 0.571,-0.143 0.57,-0.082C0.569,-0.05 0.569,-0.027 0.569,-0.013C0.568,0.001 0.568,0.008 0.568,0.007C0.392,-0.001 0.238,-0.003 0.106,-0L0.022,0.002C0.01,0.002 0.004,-0.001 0.004,-0.006C0.004,-0.01 0.006,-0.012 0.009,-0.013C0.012,-0.014 0.022,-0.015 0.039,-0.016C0.07,-0.018 0.087,-0.027 0.09,-0.043C0.091,-0.052 0.092,-0.061 0.092,-0.072L0.092,-0.579C0.092,-0.619 0.092,-0.641 0.091,-0.645C0.09,-0.656 0.087,-0.663 0.081,-0.667C0.075,-0.671 0.063,-0.673 0.044,-0.673C0.023,-0.673 0.013,-0.676 0.013,-0.682C0.013,-0.689 0.022,-0.692 0.041,-0.692C0.059,-0.692 0.084,-0.692 0.117,-0.693C0.24,-0.696 0.34,-0.696 0.418,-0.695L0.486,-0.694C0.501,-0.694 0.519,-0.695 0.54,-0.698L0.549,-0.589C0.552,-0.554 0.554,-0.533 0.554,-0.525C0.554,-0.518 0.551,-0.515 0.544,-0.515C0.537,-0.515 0.533,-0.524 0.531,-0.541C0.525,-0.587 0.507,-0.62 0.476,-0.642C0.444,-0.663 0.399,-0.673 0.338,-0.673C0.319,-0.673 0.287,-0.672 0.242,-0.67L0.242,-0.375C0.315,-0.374 0.362,-0.38 0.381,-0.391C0.4,-0.402 0.412,-0.43 0.419,-0.476C0.422,-0.501 0.427,-0.513 0.434,-0.513C0.44,-0.513 0.443,-0.507 0.443,-0.495C0.443,-0.483 0.442,-0.458 0.44,-0.421C0.439,-0.408 0.439,-0.391 0.439,-0.37C0.439,-0.313 0.44,-0.269 0.441,-0.24C0.442,-0.236 0.442,-0.231 0.442,-0.225C0.442,-0.217 0.439,-0.213 0.433,-0.213C0.428,-0.213 0.425,-0.215 0.424,-0.218C0.423,-0.221 0.421,-0.231 0.418,-0.25C0.411,-0.297 0.402,-0.327 0.391,-0.339C0.379,-0.35 0.352,-0.356 0.31,-0.356L0.242,-0.356L0.242,-0.019L0.306,-0.02C0.379,-0.021 0.424,-0.023 0.44,-0.025C0.46,-0.028 0.479,-0.035 0.498,-0.047C0.515,-0.06 0.526,-0.075 0.533,-0.09C0.539,-0.105 0.546,-0.134 0.553,-0.175C0.555,-0.185 0.558,-0.19 0.563,-0.19C0.568,-0.19 0.571,-0.185 0.571,-0.175Z" style="fill:#3c0000;fill-opacity:0.69;fill-rule:nonzero;"/></g><g transform="matrix(20.3072,-8.4627,8.4627,20.3072,692.072,924.097)"><path d="M0.601,-0.219L0.6,-0.202C0.6,-0.199 0.598,-0.178 0.595,-0.139C0.592,-0.11 0.591,-0.087 0.591,-0.071C0.591,-0.051 0.591,-0.034 0.592,-0.021C0.593,-0.016 0.593,-0.011 0.593,-0.004C0.593,0.003 0.591,0.007 0.588,0.007C0.585,0.007 0.581,0.004 0.577,-0.003C0.562,-0.027 0.547,-0.043 0.53,-0.05C0.48,-0.007 0.426,0.014 0.369,0.014C0.282,0.014 0.205,-0.019 0.138,-0.084C0.067,-0.153 0.032,-0.241 0.032,-0.346C0.032,-0.448 0.064,-0.533 0.128,-0.602C0.191,-0.67 0.271,-0.704 0.366,-0.704C0.41,-0.704 0.449,-0.694 0.484,-0.674C0.504,-0.663 0.519,-0.657 0.528,-0.657C0.542,-0.657 0.555,-0.663 0.567,-0.676C0.576,-0.685 0.581,-0.69 0.583,-0.69C0.586,-0.69 0.587,-0.688 0.587,-0.683C0.587,-0.681 0.587,-0.678 0.586,-0.674C0.582,-0.651 0.58,-0.623 0.58,-0.59C0.58,-0.587 0.58,-0.573 0.581,-0.549L0.581,-0.48C0.581,-0.468 0.578,-0.462 0.571,-0.462C0.566,-0.462 0.56,-0.475 0.555,-0.501C0.531,-0.621 0.476,-0.681 0.39,-0.681C0.322,-0.681 0.273,-0.637 0.242,-0.549C0.221,-0.489 0.21,-0.417 0.21,-0.333C0.21,-0.208 0.235,-0.117 0.286,-0.059C0.313,-0.028 0.348,-0.013 0.391,-0.013C0.485,-0.013 0.547,-0.076 0.576,-0.201C0.581,-0.222 0.586,-0.232 0.592,-0.232C0.599,-0.232 0.602,-0.228 0.601,-0.219Z" style="fill:#3c0000;fill-opacity:0.69;fill-rule:nonzero;"/></g><g transform="matrix(19.8639,-9.45649,9.45649,19.8639,711.171,915.942)"><path d="M0.592,-0.506C0.592,-0.501 0.59,-0.498 0.585,-0.498C0.578,-0.498 0.571,-0.511 0.565,-0.537C0.553,-0.588 0.536,-0.623 0.515,-0.642C0.494,-0.661 0.46,-0.67 0.413,-0.67C0.395,-0.67 0.379,-0.669 0.366,-0.668L0.367,-0.06C0.368,-0.043 0.372,-0.033 0.381,-0.028C0.39,-0.023 0.413,-0.019 0.451,-0.016C0.458,-0.015 0.462,-0.012 0.462,-0.007C0.462,-0 0.457,0.003 0.446,0.003C0.444,0.003 0.439,0.003 0.431,0.002C0.421,0.001 0.413,0.001 0.406,0.001L0.303,-0.002L0.133,0.001C0.124,0.001 0.119,-0.002 0.119,-0.007C0.119,-0.011 0.12,-0.013 0.123,-0.014C0.126,-0.015 0.137,-0.015 0.156,-0.016C0.193,-0.017 0.212,-0.026 0.215,-0.042C0.216,-0.051 0.217,-0.118 0.217,-0.245L0.217,-0.668C0.21,-0.669 0.201,-0.669 0.191,-0.669C0.138,-0.669 0.099,-0.659 0.075,-0.64C0.05,-0.62 0.034,-0.585 0.027,-0.535C0.022,-0.506 0.016,-0.491 0.009,-0.491C0.003,-0.491 0,-0.495 0,-0.503C0,-0.508 0.001,-0.527 0.004,-0.558C0.009,-0.623 0.013,-0.668 0.014,-0.692L0.029,-0.692L0.102,-0.693C0.104,-0.693 0.127,-0.692 0.172,-0.691C0.216,-0.69 0.272,-0.689 0.341,-0.689C0.379,-0.689 0.413,-0.689 0.443,-0.69C0.473,-0.691 0.5,-0.691 0.525,-0.691C0.547,-0.691 0.564,-0.692 0.575,-0.693C0.577,-0.65 0.582,-0.594 0.59,-0.527C0.591,-0.516 0.592,-0.509 0.592,-0.506Z" style="fill:#3c0000;fill-opacity:0.69;fill-rule:nonzero;"/></g><g transform="matrix(19.4534,-10.2745,10.2745,19.4534,729.116,907.173)"><path d="M0.326,-0.007C0.326,-0.002 0.322,0.001 0.313,0.001C0.308,0.001 0.304,0.001 0.3,-0C0.26,-0.002 0.226,-0.003 0.197,-0.003C0.167,-0.003 0.123,-0.002 0.065,-0C0.046,0.001 0.031,0.001 0.022,0.001C0.012,0.001 0.007,-0.002 0.007,-0.008C0.007,-0.011 0.009,-0.013 0.013,-0.014C0.016,-0.015 0.029,-0.015 0.051,-0.016C0.072,-0.02 0.084,-0.026 0.087,-0.035C0.09,-0.043 0.092,-0.07 0.092,-0.115L0.092,-0.633C0.091,-0.645 0.091,-0.651 0.091,-0.65C0.091,-0.667 0.074,-0.675 0.041,-0.675C0.022,-0.675 0.013,-0.677 0.013,-0.682C0.013,-0.687 0.014,-0.689 0.017,-0.69C0.02,-0.691 0.028,-0.691 0.043,-0.691C0.036,-0.691 0.048,-0.691 0.079,-0.69C0.11,-0.689 0.136,-0.689 0.158,-0.689L0.209,-0.689C0.22,-0.689 0.235,-0.69 0.255,-0.691C0.274,-0.692 0.288,-0.692 0.296,-0.692L0.306,-0.692C0.315,-0.692 0.319,-0.689 0.319,-0.684C0.319,-0.68 0.318,-0.678 0.315,-0.677C0.312,-0.676 0.301,-0.675 0.284,-0.674C0.263,-0.673 0.251,-0.668 0.246,-0.661L0.243,-0.642L0.243,-0.077C0.243,-0.048 0.246,-0.031 0.253,-0.026C0.259,-0.021 0.28,-0.017 0.317,-0.015C0.323,-0.014 0.326,-0.012 0.326,-0.007Z" style="fill:#3c0000;fill-opacity:0.69;fill-rule:nonzero;"/></g><g transform="matrix(18.9756,-11.1322,11.1322,18.9756,741.698,900.457)"><path d="M0.678,-0.345C0.678,-0.245 0.647,-0.161 0.585,-0.092C0.522,-0.023 0.446,0.012 0.355,0.012C0.266,0.012 0.19,-0.023 0.127,-0.093C0.064,-0.163 0.032,-0.247 0.032,-0.346C0.032,-0.447 0.064,-0.532 0.127,-0.6C0.19,-0.668 0.268,-0.702 0.361,-0.702C0.451,-0.702 0.526,-0.668 0.587,-0.6C0.648,-0.531 0.678,-0.446 0.678,-0.345ZM0.502,-0.329C0.502,-0.462 0.486,-0.56 0.455,-0.623C0.434,-0.664 0.402,-0.685 0.357,-0.685C0.312,-0.685 0.276,-0.656 0.249,-0.598C0.222,-0.54 0.208,-0.462 0.208,-0.365C0.208,-0.224 0.232,-0.118 0.28,-0.048C0.3,-0.019 0.329,-0.004 0.367,-0.004C0.411,-0.004 0.442,-0.025 0.46,-0.067C0.488,-0.132 0.502,-0.22 0.502,-0.329Z" style="fill:#3c0000;fill-opacity:0.69;fill-rule:nonzero;"/></g><g transform="matrix(18.3721,-12.1024,12.1024,18.3721,760.874,888.978)"><path d="M0.667,-0.681C0.667,-0.678 0.665,-0.676 0.66,-0.675C0.655,-0.674 0.637,-0.673 0.606,-0.672C0.588,-0.671 0.578,-0.668 0.575,-0.661C0.572,-0.657 0.571,-0.636 0.572,-0.597L0.573,-0.481C0.574,-0.404 0.574,-0.303 0.574,-0.178L0.574,-0.008C0.574,0.003 0.572,0.009 0.567,0.009C0.56,0.009 0.511,-0.046 0.422,-0.157C0.332,-0.267 0.233,-0.393 0.126,-0.535L0.126,-0.461C0.126,-0.436 0.126,-0.414 0.127,-0.395L0.127,-0.05C0.127,-0.036 0.131,-0.027 0.14,-0.024C0.154,-0.019 0.17,-0.016 0.189,-0.016C0.211,-0.016 0.223,-0.014 0.226,-0.011C0.227,-0.01 0.227,-0.009 0.227,-0.007C0.227,-0.002 0.222,0.001 0.212,0.001C0.206,0.001 0.201,0.001 0.197,-0C0.157,-0.001 0.132,-0.002 0.122,-0.002C0.099,-0.002 0.068,-0.001 0.03,-0C0.011,0.001 0.003,0.001 0.006,0.001C-0.004,0.001 -0.009,-0.002 -0.009,-0.007C-0.009,-0.012 0.006,-0.015 0.035,-0.017C0.069,-0.02 0.089,-0.025 0.094,-0.033C0.097,-0.038 0.099,-0.062 0.099,-0.105L0.099,-0.516C0.099,-0.558 0.098,-0.583 0.097,-0.592C0.093,-0.621 0.081,-0.643 0.062,-0.656C0.047,-0.666 0.02,-0.672 -0.02,-0.673C-0.031,-0.674 -0.036,-0.677 -0.036,-0.682C-0.036,-0.688 -0.031,-0.691 -0.022,-0.691C-0.018,-0.691 -0.004,-0.69 0.021,-0.689C0.033,-0.688 0.051,-0.688 0.075,-0.688C0.124,-0.688 0.164,-0.689 0.195,-0.69L0.546,-0.239L0.546,-0.635C0.546,-0.651 0.543,-0.661 0.538,-0.666C0.533,-0.67 0.521,-0.672 0.504,-0.673L0.461,-0.675C0.453,-0.676 0.449,-0.678 0.449,-0.682C0.449,-0.687 0.455,-0.69 0.467,-0.69L0.489,-0.69C0.493,-0.69 0.5,-0.69 0.509,-0.691L0.532,-0.691C0.599,-0.691 0.639,-0.691 0.65,-0.69C0.661,-0.689 0.667,-0.686 0.667,-0.681Z" style="fill:#3c0000;fill-opacity:0.69;fill-rule:nonzero;"/></g><g transform="matrix(17.7729,-12.9662,12.9662,17.7729,778.601,877.042)"><path d="M0.471,-0.197C0.471,-0.136 0.45,-0.086 0.407,-0.047C0.364,-0.007 0.309,0.013 0.242,0.013C0.201,0.013 0.145,-0.001 0.074,-0.028C0.069,-0.03 0.064,-0.031 0.06,-0.031C0.049,-0.031 0.04,-0.019 0.034,0.005C0.032,0.012 0.029,0.016 0.026,0.016C0.021,0.016 0.018,0.011 0.018,0.002C0.018,-0.007 0.02,-0.022 0.023,-0.044C0.026,-0.062 0.027,-0.083 0.027,-0.107C0.027,-0.126 0.027,-0.142 0.026,-0.153C0.025,-0.176 0.024,-0.189 0.024,-0.193C0.024,-0.204 0.027,-0.209 0.034,-0.209C0.041,-0.209 0.047,-0.195 0.052,-0.166C0.061,-0.117 0.082,-0.078 0.115,-0.051C0.15,-0.022 0.188,-0.007 0.229,-0.007C0.265,-0.007 0.295,-0.018 0.32,-0.041C0.345,-0.064 0.357,-0.091 0.357,-0.124C0.357,-0.152 0.349,-0.174 0.333,-0.191C0.321,-0.203 0.282,-0.227 0.217,-0.262C0.144,-0.301 0.095,-0.339 0.069,-0.378C0.045,-0.413 0.033,-0.455 0.033,-0.504C0.033,-0.561 0.053,-0.609 0.094,-0.647C0.135,-0.684 0.186,-0.703 0.248,-0.703C0.281,-0.703 0.317,-0.695 0.355,-0.679C0.368,-0.674 0.377,-0.671 0.382,-0.671C0.392,-0.671 0.399,-0.68 0.402,-0.697C0.403,-0.703 0.406,-0.706 0.411,-0.706C0.418,-0.706 0.421,-0.702 0.421,-0.693C0.421,-0.69 0.42,-0.68 0.419,-0.665C0.418,-0.65 0.417,-0.637 0.417,-0.627C0.417,-0.592 0.418,-0.563 0.421,-0.539C0.422,-0.537 0.422,-0.534 0.422,-0.531C0.422,-0.525 0.419,-0.522 0.414,-0.522C0.408,-0.522 0.402,-0.533 0.396,-0.554C0.39,-0.575 0.38,-0.596 0.365,-0.618C0.349,-0.639 0.334,-0.654 0.319,-0.663C0.299,-0.675 0.276,-0.681 0.249,-0.681C0.212,-0.681 0.182,-0.672 0.16,-0.654C0.138,-0.636 0.127,-0.611 0.127,-0.58C0.127,-0.553 0.137,-0.529 0.158,-0.508C0.179,-0.487 0.218,-0.46 0.277,-0.427C0.349,-0.387 0.397,-0.355 0.42,-0.331C0.454,-0.296 0.471,-0.251 0.471,-0.197Z" style="fill:#3c0000;fill-opacity:0.69;fill-rule:nonzero;"/></g><g transform="matrix(13.0757,-17.6925,17.6925,13.0757,868.64,790.012)"><path d="M0.55,-0.532C0.55,-0.475 0.529,-0.429 0.486,-0.394C0.443,-0.359 0.387,-0.341 0.316,-0.341C0.298,-0.341 0.273,-0.343 0.24,-0.348L0.24,-0.092C0.24,-0.055 0.243,-0.034 0.248,-0.028C0.253,-0.021 0.271,-0.017 0.303,-0.016C0.321,-0.017 0.33,-0.014 0.33,-0.007C0.33,-0.001 0.325,0.002 0.314,0.002L0.299,0.002C0.296,0.002 0.28,0.002 0.253,0.001C0.225,0 0.196,-0 0.167,-0L0.05,0.001C0.028,0.001 0.015,0 0.012,-0.001C0.009,-0.002 0.007,-0.004 0.007,-0.007C0.007,-0.012 0.012,-0.015 0.023,-0.015C0.056,-0.016 0.075,-0.019 0.082,-0.024C0.088,-0.029 0.091,-0.045 0.091,-0.07L0.091,-0.584C0.091,-0.627 0.089,-0.652 0.086,-0.661C0.083,-0.67 0.066,-0.674 0.035,-0.674C0.017,-0.674 0.008,-0.677 0.008,-0.682C0.008,-0.688 0.016,-0.691 0.033,-0.691L0.319,-0.692C0.389,-0.692 0.441,-0.681 0.476,-0.66C0.525,-0.629 0.55,-0.587 0.55,-0.532ZM0.389,-0.526C0.389,-0.625 0.358,-0.674 0.296,-0.674C0.259,-0.674 0.24,-0.658 0.24,-0.625L0.24,-0.363C0.267,-0.363 0.286,-0.364 0.296,-0.366C0.315,-0.369 0.332,-0.377 0.346,-0.389C0.375,-0.414 0.389,-0.46 0.389,-0.526Z" style="fill:#3c0000;fill-opacity:0.69;fill-rule:nonzero;"/></g><g transform="matrix(12.1953,-18.3105,18.3105,12.1953,879.933,774.49)"><path d="M0.646,-0.039C0.646,-0.002 0.622,0.017 0.573,0.017C0.512,0.017 0.463,-0.002 0.426,-0.041C0.397,-0.071 0.381,-0.103 0.377,-0.137L0.367,-0.219C0.36,-0.271 0.348,-0.307 0.331,-0.328C0.313,-0.349 0.284,-0.359 0.245,-0.358L0.245,-0.131C0.245,-0.078 0.245,-0.05 0.246,-0.046C0.246,-0.035 0.251,-0.027 0.26,-0.023C0.269,-0.018 0.287,-0.016 0.313,-0.016C0.329,-0.016 0.337,-0.013 0.337,-0.007C0.337,-0.002 0.333,0.001 0.325,0.001L0.228,-0L0.212,-0C0.2,0.001 0.189,0.001 0.178,0.001L0.106,0.001C0.099,0.001 0.092,0.001 0.083,-0L0.069,-0L0.023,0.001C0.014,0.001 0.009,-0.002 0.009,-0.007C0.009,-0.013 0.023,-0.017 0.05,-0.018C0.073,-0.019 0.086,-0.025 0.09,-0.034C0.092,-0.039 0.093,-0.053 0.093,-0.076L0.093,-0.591C0.093,-0.626 0.092,-0.646 0.091,-0.653C0.09,-0.659 0.085,-0.664 0.078,-0.667C0.069,-0.671 0.054,-0.673 0.033,-0.673C0.018,-0.673 0.011,-0.676 0.011,-0.682C0.011,-0.687 0.014,-0.69 0.02,-0.691C0.026,-0.692 0.042,-0.692 0.068,-0.692L0.086,-0.692C0.098,-0.691 0.11,-0.691 0.121,-0.691L0.154,-0.691C0.155,-0.691 0.162,-0.691 0.175,-0.692L0.269,-0.692C0.362,-0.692 0.426,-0.685 0.46,-0.67C0.487,-0.659 0.508,-0.641 0.524,-0.618C0.54,-0.595 0.548,-0.569 0.548,-0.541C0.548,-0.477 0.515,-0.43 0.448,-0.399C0.419,-0.386 0.375,-0.376 0.318,-0.369L0.317,-0.363C0.39,-0.358 0.442,-0.339 0.475,-0.306C0.508,-0.272 0.527,-0.217 0.534,-0.142C0.539,-0.082 0.548,-0.045 0.559,-0.03C0.57,-0.015 0.582,-0.007 0.594,-0.007C0.604,-0.007 0.609,-0.01 0.609,-0.015C0.609,-0.018 0.605,-0.021 0.598,-0.026C0.59,-0.031 0.586,-0.037 0.586,-0.046C0.586,-0.064 0.596,-0.073 0.616,-0.073C0.636,-0.073 0.646,-0.062 0.646,-0.039ZM0.393,-0.544C0.393,-0.63 0.359,-0.673 0.291,-0.673C0.269,-0.673 0.255,-0.666 0.25,-0.651C0.247,-0.642 0.245,-0.605 0.245,-0.542L0.245,-0.376C0.297,-0.375 0.335,-0.388 0.358,-0.415C0.381,-0.442 0.393,-0.485 0.393,-0.544Z" style="fill:#3c0000;fill-opacity:0.69;fill-rule:nonzero;"/></g><g transform="matrix(11.2322,-18.9166,18.9166,11.2322,891.336,757.102)"><path d="M0.678,-0.345C0.678,-0.245 0.647,-0.161 0.585,-0.092C0.522,-0.023 0.446,0.012 0.355,0.012C0.266,0.012 0.19,-0.023 0.127,-0.093C0.064,-0.163 0.032,-0.247 0.032,-0.346C0.032,-0.447 0.064,-0.532 0.127,-0.6C0.19,-0.668 0.268,-0.702 0.361,-0.702C0.451,-0.702 0.526,-0.668 0.587,-0.6C0.648,-0.531 0.678,-0.446 0.678,-0.345ZM0.502,-0.329C0.502,-0.462 0.486,-0.56 0.455,-0.623C0.434,-0.664 0.402,-0.685 0.357,-0.685C0.312,-0.685 0.276,-0.656 0.249,-0.598C0.222,-0.54 0.208,-0.462 0.208,-0.365C0.208,-0.224 0.232,-0.118 0.28,-0.048C0.3,-0.019 0.329,-0.004 0.367,-0.004C0.411,-0.004 0.442,-0.025 0.46,-0.067C0.488,-0.132 0.502,-0.22 0.502,-0.329Z" style="fill:#3c0000;fill-opacity:0.69;fill-rule:nonzero;"/></g><g transform="matrix(10.3408,-19.4182,19.4182,10.3408,902.595,737.68)"><path d="M0.406,-0.683C0.406,-0.677 0.402,-0.674 0.394,-0.674L0.393,-0.674C0.386,-0.675 0.378,-0.675 0.368,-0.675C0.346,-0.675 0.333,-0.671 0.329,-0.662C0.327,-0.659 0.326,-0.639 0.326,-0.604L0.326,-0.155C0.326,-0.08 0.323,-0.032 0.317,-0.009C0.308,0.026 0.278,0.06 0.229,0.093C0.19,0.12 0.151,0.133 0.112,0.133C0.081,0.133 0.055,0.125 0.036,0.109C0.017,0.093 0.007,0.072 0.007,0.046C0.007,0.026 0.014,0.01 0.027,-0.004C0.04,-0.017 0.056,-0.023 0.076,-0.023C0.093,-0.023 0.108,-0.017 0.12,-0.006C0.131,0.005 0.137,0.02 0.137,0.037C0.137,0.054 0.13,0.072 0.116,0.091C0.112,0.096 0.11,0.101 0.11,0.105C0.11,0.112 0.116,0.116 0.128,0.116C0.158,0.116 0.175,0.089 0.178,0.035C0.179,0.024 0.179,-0.051 0.179,-0.19L0.179,-0.629C0.178,-0.64 0.178,-0.645 0.178,-0.645C0.177,-0.656 0.172,-0.664 0.164,-0.668C0.156,-0.671 0.14,-0.673 0.116,-0.674C0.101,-0.675 0.092,-0.675 0.089,-0.676C0.086,-0.677 0.085,-0.679 0.085,-0.683C0.085,-0.689 0.09,-0.692 0.1,-0.692L0.225,-0.691C0.224,-0.691 0.238,-0.691 0.266,-0.692C0.297,-0.693 0.328,-0.693 0.36,-0.693L0.389,-0.693C0.4,-0.693 0.406,-0.69 0.406,-0.683Z" style="fill:#3c0000;fill-opacity:0.69;fill-rule:nonzero;"/></g><g transform="matrix(9.48296,-19.8513,19.8513,9.48296,910.107,723.326)"><path d="M0.571,-0.175C0.571,-0.174 0.571,-0.143 0.57,-0.082C0.569,-0.05 0.569,-0.027 0.569,-0.013C0.568,0.001 0.568,0.008 0.568,0.007C0.392,-0.001 0.238,-0.003 0.106,-0L0.022,0.002C0.01,0.002 0.004,-0.001 0.004,-0.006C0.004,-0.01 0.006,-0.012 0.009,-0.013C0.012,-0.014 0.022,-0.015 0.039,-0.016C0.07,-0.018 0.087,-0.027 0.09,-0.043C0.091,-0.052 0.092,-0.061 0.092,-0.072L0.092,-0.579C0.092,-0.619 0.092,-0.641 0.091,-0.645C0.09,-0.656 0.087,-0.663 0.081,-0.667C0.075,-0.671 0.063,-0.673 0.044,-0.673C0.023,-0.673 0.013,-0.676 0.013,-0.682C0.013,-0.689 0.022,-0.692 0.041,-0.692C0.059,-0.692 0.084,-0.692 0.117,-0.693C0.24,-0.696 0.34,-0.696 0.418,-0.695L0.486,-0.694C0.501,-0.694 0.519,-0.695 0.54,-0.698L0.549,-0.589C0.552,-0.554 0.554,-0.533 0.554,-0.525C0.554,-0.518 0.551,-0.515 0.544,-0.515C0.537,-0.515 0.533,-0.524 0.531,-0.541C0.525,-0.587 0.507,-0.62 0.476,-0.642C0.444,-0.663 0.399,-0.673 0.338,-0.673C0.319,-0.673 0.287,-0.672 0.242,-0.67L0.242,-0.375C0.315,-0.374 0.362,-0.38 0.381,-0.391C0.4,-0.402 0.412,-0.43 0.419,-0.476C0.422,-0.501 0.427,-0.513 0.434,-0.513C0.44,-0.513 0.443,-0.507 0.443,-0.495C0.443,-0.483 0.442,-0.458 0.44,-0.421C0.439,-0.408 0.439,-0.391 0.439,-0.37C0.439,-0.313 0.44,-0.269 0.441,-0.24C0.442,-0.236 0.442,-0.231 0.442,-0.225C0.442,-0.217 0.439,-0.213 0.433,-0.213C0.428,-0.213 0.425,-0.215 0.424,-0.218C0.423,-0.221 0.421,-0.231 0.418,-0.25C0.411,-0.297 0.402,-0.327 0.391,-0.339C0.379,-0.35 0.352,-0.356 0.31,-0.356L0.242,-0.356L0.242,-0.019L0.306,-0.02C0.379,-0.021 0.424,-0.023 0.44,-0.025C0.46,-0.028 0.479,-0.035 0.498,-0.047C0.515,-0.06 0.526,-0.075 0.533,-0.09C0.539,-0.105 0.546,-0.134 0.553,-0.175C0.555,-0.185 0.558,-0.19 0.563,-0.19C0.568,-0.19 0.571,-0.185 0.571,-0.175Z" style="fill:#3c0000;fill-opacity:0.69;fill-rule:nonzero;"/></g><g transform="matrix(8.48021,-20.2999,20.2999,8.48021,918.524,705.326)"><path d="M0.601,-0.219L0.6,-0.202C0.6,-0.199 0.598,-0.178 0.595,-0.139C0.592,-0.11 0.591,-0.087 0.591,-0.071C0.591,-0.051 0.591,-0.034 0.592,-0.021C0.593,-0.016 0.593,-0.011 0.593,-0.004C0.593,0.003 0.591,0.007 0.588,0.007C0.585,0.007 0.581,0.004 0.577,-0.003C0.562,-0.027 0.547,-0.043 0.53,-0.05C0.48,-0.007 0.426,0.014 0.369,0.014C0.282,0.014 0.205,-0.019 0.138,-0.084C0.067,-0.153 0.032,-0.241 0.032,-0.346C0.032,-0.448 0.064,-0.533 0.128,-0.602C0.191,-0.67 0.271,-0.704 0.366,-0.704C0.41,-0.704 0.449,-0.694 0.484,-0.674C0.504,-0.663 0.519,-0.657 0.528,-0.657C0.542,-0.657 0.555,-0.663 0.567,-0.676C0.576,-0.685 0.581,-0.69 0.583,-0.69C0.586,-0.69 0.587,-0.688 0.587,-0.683C0.587,-0.681 0.587,-0.678 0.586,-0.674C0.582,-0.651 0.58,-0.623 0.58,-0.59C0.58,-0.587 0.58,-0.573 0.581,-0.549L0.581,-0.48C0.581,-0.468 0.578,-0.462 0.571,-0.462C0.566,-0.462 0.56,-0.475 0.555,-0.501C0.531,-0.621 0.476,-0.681 0.39,-0.681C0.322,-0.681 0.273,-0.637 0.242,-0.549C0.221,-0.489 0.21,-0.417 0.21,-0.333C0.21,-0.208 0.235,-0.117 0.286,-0.059C0.313,-0.028 0.348,-0.013 0.391,-0.013C0.485,-0.013 0.547,-0.076 0.576,-0.201C0.581,-0.222 0.586,-0.232 0.592,-0.232C0.599,-0.232 0.602,-0.228 0.601,-0.219Z" style="fill:#3c0000;fill-opacity:0.69;fill-rule:nonzero;"/></g><g transform="matrix(7.46203,-20.6958,20.6958,7.46203,926.377,686.055)"><path d="M0.592,-0.506C0.592,-0.501 0.59,-0.498 0.585,-0.498C0.578,-0.498 0.571,-0.511 0.565,-0.537C0.553,-0.588 0.536,-0.623 0.515,-0.642C0.494,-0.661 0.46,-0.67 0.413,-0.67C0.395,-0.67 0.379,-0.669 0.366,-0.668L0.367,-0.06C0.368,-0.043 0.372,-0.033 0.381,-0.028C0.39,-0.023 0.413,-0.019 0.451,-0.016C0.458,-0.015 0.462,-0.012 0.462,-0.007C0.462,-0 0.457,0.003 0.446,0.003C0.444,0.003 0.439,0.003 0.431,0.002C0.421,0.001 0.413,0.001 0.406,0.001L0.303,-0.002L0.133,0.001C0.124,0.001 0.119,-0.002 0.119,-0.007C0.119,-0.011 0.12,-0.013 0.123,-0.014C0.126,-0.015 0.137,-0.015 0.156,-0.016C0.193,-0.017 0.212,-0.026 0.215,-0.042C0.216,-0.051 0.217,-0.118 0.217,-0.245L0.217,-0.668C0.21,-0.669 0.201,-0.669 0.191,-0.669C0.138,-0.669 0.099,-0.659 0.075,-0.64C0.05,-0.62 0.034,-0.585 0.027,-0.535C0.022,-0.506 0.016,-0.491 0.009,-0.491C0.003,-0.491 0,-0.495 0,-0.503C0,-0.508 0.001,-0.527 0.004,-0.558C0.009,-0.623 0.013,-0.668 0.014,-0.692L0.029,-0.692L0.102,-0.693C0.104,-0.693 0.127,-0.692 0.172,-0.691C0.216,-0.69 0.272,-0.689 0.341,-0.689C0.379,-0.689 0.413,-0.689 0.443,-0.69C0.473,-0.691 0.5,-0.691 0.525,-0.691C0.547,-0.691 0.564,-0.692 0.575,-0.693C0.577,-0.65 0.582,-0.594 0.59,-0.527C0.591,-0.516 0.592,-0.509 0.592,-0.506Z" style="fill:#3c0000;fill-opacity:0.69;fill-rule:nonzero;"/></g><g transform="matrix(6.59626,-20.9878,20.9878,6.59626,932.922,667.31)"><path d="M0.326,-0.007C0.326,-0.002 0.322,0.001 0.313,0.001C0.308,0.001 0.304,0.001 0.3,-0C0.26,-0.002 0.226,-0.003 0.197,-0.003C0.167,-0.003 0.123,-0.002 0.065,-0C0.046,0.001 0.031,0.001 0.022,0.001C0.012,0.001 0.007,-0.002 0.007,-0.008C0.007,-0.011 0.009,-0.013 0.013,-0.014C0.016,-0.015 0.029,-0.015 0.051,-0.016C0.072,-0.02 0.084,-0.026 0.087,-0.035C0.09,-0.043 0.092,-0.07 0.092,-0.115L0.092,-0.633C0.091,-0.645 0.091,-0.651 0.091,-0.65C0.091,-0.667 0.074,-0.675 0.041,-0.675C0.022,-0.675 0.013,-0.677 0.013,-0.682C0.013,-0.687 0.014,-0.689 0.017,-0.69C0.02,-0.691 0.028,-0.691 0.043,-0.691C0.036,-0.691 0.048,-0.691 0.079,-0.69C0.11,-0.689 0.136,-0.689 0.158,-0.689L0.209,-0.689C0.22,-0.689 0.235,-0.69 0.255,-0.691C0.274,-0.692 0.288,-0.692 0.296,-0.692L0.306,-0.692C0.315,-0.692 0.319,-0.689 0.319,-0.684C0.319,-0.68 0.318,-0.678 0.315,-0.677C0.312,-0.676 0.301,-0.675 0.284,-0.674C0.263,-0.673 0.251,-0.668 0.246,-0.661L0.243,-0.642L0.243,-0.077C0.243,-0.048 0.246,-0.031 0.253,-0.026C0.259,-0.021 0.28,-0.017 0.317,-0.015C0.323,-0.014 0.326,-0.012 0.326,-0.007Z" style="fill:#3c0000;fill-opacity:0.69;fill-rule:nonzero;"/></g><g transform="matrix(5.64031,-21.2647,21.2647,5.64031,937.169,653.578)"><path d="M0.678,-0.345C0.678,-0.245 0.647,-0.161 0.585,-0.092C0.522,-0.023 0.446,0.012 0.355,0.012C0.266,0.012 0.19,-0.023 0.127,-0.093C0.064,-0.163 0.032,-0.247 0.032,-0.346C0.032,-0.447 0.064,-0.532 0.127,-0.6C0.19,-0.668 0.268,-0.702 0.361,-0.702C0.451,-0.702 0.526,-0.668 0.587,-0.6C0.648,-0.531 0.678,-0.446 0.678,-0.345ZM0.502,-0.329C0.502,-0.462 0.486,-0.56 0.455,-0.623C0.434,-0.664 0.402,-0.685 0.357,-0.685C0.312,-0.685 0.276,-0.656 0.249,-0.598C0.222,-0.54 0.208,-0.462 0.208,-0.365C0.208,-0.224 0.232,-0.118 0.28,-0.048C0.3,-0.019 0.329,-0.004 0.367,-0.004C0.411,-0.004 0.442,-0.025 0.46,-0.067C0.488,-0.132 0.502,-0.22 0.502,-0.329Z" style="fill:#3c0000;fill-opacity:0.69;fill-rule:nonzero;"/></g><g transform="matrix(4.52053,-21.5306,21.5306,4.52053,942.696,631.97)"><path d="M0.667,-0.681C0.667,-0.678 0.665,-0.676 0.66,-0.675C0.655,-0.674 0.637,-0.673 0.606,-0.672C0.588,-0.671 0.578,-0.668 0.575,-0.661C0.572,-0.657 0.571,-0.636 0.572,-0.597L0.573,-0.481C0.574,-0.404 0.574,-0.303 0.574,-0.178L0.574,-0.008C0.574,0.003 0.572,0.009 0.567,0.009C0.56,0.009 0.511,-0.046 0.422,-0.157C0.332,-0.267 0.233,-0.393 0.126,-0.535L0.126,-0.461C0.126,-0.436 0.126,-0.414 0.127,-0.395L0.127,-0.05C0.127,-0.036 0.131,-0.027 0.14,-0.024C0.154,-0.019 0.17,-0.016 0.189,-0.016C0.211,-0.016 0.223,-0.014 0.226,-0.011C0.227,-0.01 0.227,-0.009 0.227,-0.007C0.227,-0.002 0.222,0.001 0.212,0.001C0.206,0.001 0.201,0.001 0.197,-0C0.157,-0.001 0.132,-0.002 0.122,-0.002C0.099,-0.002 0.068,-0.001 0.03,-0C0.011,0.001 0.003,0.001 0.006,0.001C-0.004,0.001 -0.009,-0.002 -0.009,-0.007C-0.009,-0.012 0.006,-0.015 0.035,-0.017C0.069,-0.02 0.089,-0.025 0.094,-0.033C0.097,-0.038 0.099,-0.062 0.099,-0.105L0.099,-0.516C0.099,-0.558 0.098,-0.583 0.097,-0.592C0.093,-0.621 0.081,-0.643 0.062,-0.656C0.047,-0.666 0.02,-0.672 -0.02,-0.673C-0.031,-0.674 -0.036,-0.677 -0.036,-0.682C-0.036,-0.688 -0.031,-0.691 -0.022,-0.691C-0.018,-0.691 -0.004,-0.69 0.021,-0.689C0.033,-0.688 0.051,-0.688 0.075,-0.688C0.124,-0.688 0.164,-0.689 0.195,-0.69L0.546,-0.239L0.546,-0.635C0.546,-0.651 0.543,-0.661 0.538,-0.666C0.533,-0.67 0.521,-0.672 0.504,-0.673L0.461,-0.675C0.453,-0.676 0.449,-0.678 0.449,-0.682C0.449,-0.687 0.455,-0.69 0.467,-0.69L0.489,-0.69C0.493,-0.69 0.5,-0.69 0.509,-0.691L0.532,-0.691C0.599,-0.691 0.639,-0.691 0.65,-0.69C0.661,-0.689 0.667,-0.686 0.667,-0.681Z" style="fill:#3c0000;fill-opacity:0.69;fill-rule:nonzero;"/></g><g transform="matrix(3.47646,-21.7236,21.7236,3.47646,946.875,610.998)"><path d="M0.471,-0.197C0.471,-0.136 0.45,-0.086 0.407,-0.047C0.364,-0.007 0.309,0.013 0.242,0.013C0.201,0.013 0.145,-0.001 0.074,-0.028C0.069,-0.03 0.064,-0.031 0.06,-0.031C0.049,-0.031 0.04,-0.019 0.034,0.005C0.032,0.012 0.029,0.016 0.026,0.016C0.021,0.016 0.018,0.011 0.018,0.002C0.018,-0.007 0.02,-0.022 0.023,-0.044C0.026,-0.062 0.027,-0.083 0.027,-0.107C0.027,-0.126 0.027,-0.142 0.026,-0.153C0.025,-0.176 0.024,-0.189 0.024,-0.193C0.024,-0.204 0.027,-0.209 0.034,-0.209C0.041,-0.209 0.047,-0.195 0.052,-0.166C0.061,-0.117 0.082,-0.078 0.115,-0.051C0.15,-0.022 0.188,-0.007 0.229,-0.007C0.265,-0.007 0.295,-0.018 0.32,-0.041C0.345,-0.064 0.357,-0.091 0.357,-0.124C0.357,-0.152 0.349,-0.174 0.333,-0.191C0.321,-0.203 0.282,-0.227 0.217,-0.262C0.144,-0.301 0.095,-0.339 0.069,-0.378C0.045,-0.413 0.033,-0.455 0.033,-0.504C0.033,-0.561 0.053,-0.609 0.094,-0.647C0.135,-0.684 0.186,-0.703 0.248,-0.703C0.281,-0.703 0.317,-0.695 0.355,-0.679C0.368,-0.674 0.377,-0.671 0.382,-0.671C0.392,-0.671 0.399,-0.68 0.402,-0.697C0.403,-0.703 0.406,-0.706 0.411,-0.706C0.418,-0.706 0.421,-0.702 0.421,-0.693C0.421,-0.69 0.42,-0.68 0.419,-0.665C0.418,-0.65 0.417,-0.637 0.417,-0.627C0.417,-0.592 0.418,-0.563 0.421,-0.539C0.422,-0.537 0.422,-0.534 0.422,-0.531C0.422,-0.525 0.419,-0.522 0.414,-0.522C0.408,-0.522 0.402,-0.533 0.396,-0.554C0.39,-0.575 0.38,-0.596 0.365,-0.618C0.349,-0.639 0.334,-0.654 0.319,-0.663C0.299,-0.675 0.276,-0.681 0.249,-0.681C0.212,-0.681 0.182,-0.672 0.16,-0.654C0.138,-0.636 0.127,-0.611 0.127,-0.58C0.127,-0.553 0.137,-0.529 0.158,-0.508C0.179,-0.487 0.218,-0.46 0.277,-0.427C0.349,-0.387 0.397,-0.355 0.42,-0.331C0.454,-0.296 0.471,-0.251 0.471,-0.197Z" style="fill:#3c0000;fill-opacity:0.69;fill-rule:nonzero;"/></g></g><g id="puzzlebang" transform="matrix(1,0,0,1,-37,-37)"><g transform="matrix(38.9932,-27.9916,27.9916,38.9932,341.958,271.844)"><path d="M0.55,-0.532C0.55,-0.475 0.529,-0.429 0.486,-0.394C0.443,-0.359 0.387,-0.341 0.316,-0.341C0.298,-0.341 0.273,-0.343 0.24,-0.348L0.24,-0.092C0.24,-0.055 0.243,-0.034 0.248,-0.028C0.253,-0.021 0.271,-0.017 0.303,-0.016C0.321,-0.017 0.33,-0.014 0.33,-0.007C0.33,-0.001 0.325,0.002 0.314,0.002L0.299,0.002C0.296,0.002 0.28,0.002 0.253,0.001C0.225,0 0.196,-0 0.167,-0L0.05,0.001C0.028,0.001 0.015,0 0.012,-0.001C0.009,-0.002 0.007,-0.004 0.007,-0.007C0.007,-0.012 0.012,-0.015 0.023,-0.015C0.056,-0.016 0.075,-0.019 0.082,-0.024C0.088,-0.029 0.091,-0.045 0.091,-0.07L0.091,-0.584C0.091,-0.627 0.089,-0.652 0.086,-0.661C0.083,-0.67 0.066,-0.674 0.035,-0.674C0.017,-0.674 0.008,-0.677 0.008,-0.682C0.008,-0.688 0.016,-0.691 0.033,-0.691L0.319,-0.692C0.389,-0.692 0.441,-0.681 0.476,-0.66C0.525,-0.629 0.55,-0.587 0.55,-0.532ZM0.389,-0.526C0.389,-0.625 0.358,-0.674 0.296,-0.674C0.259,-0.674 0.24,-0.658 0.24,-0.625L0.24,-0.363C0.267,-0.363 0.286,-0.364 0.296,-0.366C0.315,-0.369 0.332,-0.377 0.346,-0.389C0.375,-0.414 0.389,-0.46 0.389,-0.526Z" style="fill:#3c0000;fill-opacity:0.69;fill-rule:nonzero;"/></g><g transform="matrix(42.2511,-22.7782,22.7782,42.2511,381.265,245.117)"><path d="M0.631,-0.682C0.631,-0.677 0.62,-0.674 0.597,-0.673C0.569,-0.672 0.552,-0.668 0.546,-0.659C0.544,-0.656 0.543,-0.651 0.542,-0.642L0.542,-0.219C0.542,-0.062 0.467,0.017 0.316,0.017C0.239,0.017 0.179,-0.007 0.136,-0.054C0.104,-0.089 0.088,-0.152 0.088,-0.242L0.088,-0.626C0.088,-0.647 0.085,-0.66 0.078,-0.665C0.071,-0.67 0.05,-0.673 0.015,-0.676C0.008,-0.677 0.004,-0.679 0.004,-0.684C0.004,-0.69 0.01,-0.693 0.022,-0.693L0.03,-0.693C0.036,-0.692 0.041,-0.692 0.045,-0.692L0.107,-0.691C0.166,-0.69 0.209,-0.69 0.237,-0.691C0.274,-0.692 0.289,-0.692 0.281,-0.692L0.302,-0.692C0.313,-0.692 0.319,-0.689 0.319,-0.682C0.319,-0.676 0.309,-0.673 0.288,-0.673C0.259,-0.673 0.243,-0.668 0.241,-0.657C0.24,-0.65 0.239,-0.643 0.239,-0.636L0.239,-0.262C0.239,-0.208 0.24,-0.174 0.242,-0.159C0.247,-0.116 0.259,-0.084 0.279,-0.065C0.304,-0.041 0.336,-0.029 0.376,-0.029C0.421,-0.029 0.455,-0.044 0.476,-0.073C0.502,-0.108 0.515,-0.172 0.515,-0.263L0.515,-0.593C0.515,-0.599 0.515,-0.607 0.516,-0.616L0.516,-0.633C0.516,-0.65 0.511,-0.662 0.501,-0.667C0.494,-0.671 0.481,-0.673 0.462,-0.673C0.438,-0.674 0.426,-0.678 0.426,-0.685C0.426,-0.69 0.431,-0.693 0.44,-0.693C0.45,-0.693 0.465,-0.693 0.484,-0.692C0.503,-0.691 0.518,-0.69 0.528,-0.69C0.529,-0.69 0.534,-0.69 0.545,-0.691L0.6,-0.691C0.621,-0.691 0.631,-0.688 0.631,-0.682Z" style="fill:#3c0000;fill-opacity:0.69;fill-rule:nonzero;"/></g><g transform="matrix(44.7766,-17.2932,17.2932,44.7766,426.187,222.463)"><path d="M0.548,-0.213C0.548,-0.21 0.544,-0.187 0.537,-0.142C0.532,-0.109 0.525,-0.061 0.517,0.002C0.502,0.001 0.485,-0 0.464,-0L0.12,-0C0.099,-0 0.082,0.001 0.067,0.002C0.048,0.004 0.03,0.005 0.014,0.005C0.005,0.005 0.001,0.003 0.001,-0.002C0.001,-0.005 0.002,-0.008 0.005,-0.012C0.018,-0.032 0.044,-0.078 0.082,-0.15L0.294,-0.542C0.326,-0.599 0.347,-0.64 0.357,-0.664C0.341,-0.665 0.311,-0.666 0.267,-0.666C0.205,-0.666 0.159,-0.653 0.129,-0.627C0.096,-0.598 0.071,-0.559 0.054,-0.512C0.05,-0.5 0.045,-0.494 0.04,-0.494C0.035,-0.494 0.032,-0.497 0.032,-0.503C0.032,-0.507 0.033,-0.511 0.035,-0.516C0.04,-0.541 0.053,-0.601 0.072,-0.695C0.108,-0.69 0.19,-0.688 0.319,-0.688C0.366,-0.688 0.411,-0.689 0.456,-0.692C0.478,-0.693 0.492,-0.694 0.498,-0.694C0.508,-0.694 0.517,-0.694 0.525,-0.693C0.522,-0.678 0.508,-0.649 0.485,-0.606C0.454,-0.551 0.409,-0.469 0.348,-0.358C0.34,-0.343 0.279,-0.231 0.166,-0.022C0.243,-0.022 0.286,-0.022 0.297,-0.023C0.354,-0.025 0.398,-0.032 0.427,-0.044C0.473,-0.063 0.507,-0.118 0.528,-0.209C0.53,-0.219 0.534,-0.224 0.54,-0.224C0.545,-0.224 0.548,-0.22 0.548,-0.213Z" style="fill:#3c0000;fill-opacity:0.69;fill-rule:nonzero;"/></g><g transform="matrix(46.5501,-11.7086,11.7086,46.5501,470.152,206.813)"><path d="M0.548,-0.213C0.548,-0.21 0.544,-0.187 0.537,-0.142C0.532,-0.109 0.525,-0.061 0.517,0.002C0.502,0.001 0.485,-0 0.464,-0L0.12,-0C0.099,-0 0.082,0.001 0.067,0.002C0.048,0.004 0.03,0.005 0.014,0.005C0.005,0.005 0.001,0.003 0.001,-0.002C0.001,-0.005 0.002,-0.008 0.005,-0.012C0.018,-0.032 0.044,-0.078 0.082,-0.15L0.294,-0.542C0.326,-0.599 0.347,-0.64 0.357,-0.664C0.341,-0.665 0.311,-0.666 0.267,-0.666C0.205,-0.666 0.159,-0.653 0.129,-0.627C0.096,-0.598 0.071,-0.559 0.054,-0.512C0.05,-0.5 0.045,-0.494 0.04,-0.494C0.035,-0.494 0.032,-0.497 0.032,-0.503C0.032,-0.507 0.033,-0.511 0.035,-0.516C0.04,-0.541 0.053,-0.601 0.072,-0.695C0.108,-0.69 0.19,-0.688 0.319,-0.688C0.366,-0.688 0.411,-0.689 0.456,-0.692C0.478,-0.693 0.492,-0.694 0.498,-0.694C0.508,-0.694 0.517,-0.694 0.525,-0.693C0.522,-0.678 0.508,-0.649 0.485,-0.606C0.454,-0.551 0.409,-0.469 0.348,-0.358C0.34,-0.343 0.279,-0.231 0.166,-0.022C0.243,-0.022 0.286,-0.022 0.297,-0.023C0.354,-0.025 0.398,-0.032 0.427,-0.044C0.473,-0.063 0.507,-0.118 0.528,-0.209C0.53,-0.219 0.534,-0.224 0.54,-0.224C0.545,-0.224 0.548,-0.22 0.548,-0.213Z" style="fill:#3c0000;fill-opacity:0.69;fill-rule:nonzero;"/></g><g transform="matrix(47.6324,-5.92881,5.92881,47.6324,515.683,196.628)"><path d="M0.557,-0.169C0.557,-0.156 0.557,-0.146 0.556,-0.137C0.553,-0.108 0.552,-0.084 0.553,-0.066L0.554,0.005C0.469,0.002 0.314,-0 0.091,-0L0.049,-0C0.02,-0 0.005,-0.003 0.005,-0.008C0.005,-0.013 0.01,-0.016 0.019,-0.016C0.052,-0.017 0.074,-0.021 0.083,-0.03C0.089,-0.035 0.092,-0.051 0.092,-0.078L0.091,-0.62C0.091,-0.643 0.089,-0.657 0.085,-0.662C0.077,-0.672 0.065,-0.677 0.048,-0.676L0.023,-0.675C0.016,-0.675 0.012,-0.678 0.012,-0.683C0.012,-0.688 0.017,-0.691 0.026,-0.691C0.031,-0.691 0.037,-0.691 0.042,-0.69L0.296,-0.69C0.299,-0.691 0.303,-0.691 0.307,-0.691C0.314,-0.691 0.317,-0.688 0.317,-0.683C0.317,-0.677 0.308,-0.674 0.291,-0.674C0.266,-0.674 0.252,-0.671 0.248,-0.665C0.243,-0.659 0.241,-0.633 0.241,-0.586L0.241,-0.348C0.241,-0.299 0.242,-0.19 0.245,-0.021C0.258,-0.02 0.272,-0.02 0.288,-0.02C0.358,-0.02 0.406,-0.023 0.433,-0.028C0.475,-0.037 0.504,-0.058 0.519,-0.092C0.527,-0.109 0.534,-0.137 0.541,-0.175C0.543,-0.186 0.546,-0.191 0.55,-0.191C0.555,-0.191 0.557,-0.184 0.557,-0.169Z" style="fill:#3c0000;fill-opacity:0.69;fill-rule:nonzero;"/></g><g transform="matrix(48,-0.0380564,0.0380564,48,562.889,192.011)"><path d="M0.571,-0.175C0.571,-0.174 0.571,-0.143 0.57,-0.082C0.569,-0.05 0.569,-0.027 0.569,-0.013C0.568,0.001 0.568,0.008 0.568,0.007C0.392,-0.001 0.238,-0.003 0.106,-0L0.022,0.002C0.01,0.002 0.004,-0.001 0.004,-0.006C0.004,-0.01 0.006,-0.012 0.009,-0.013C0.012,-0.014 0.022,-0.015 0.039,-0.016C0.07,-0.018 0.087,-0.027 0.09,-0.043C0.091,-0.052 0.092,-0.061 0.092,-0.072L0.092,-0.579C0.092,-0.619 0.092,-0.641 0.091,-0.645C0.09,-0.656 0.087,-0.663 0.081,-0.667C0.075,-0.671 0.063,-0.673 0.044,-0.673C0.023,-0.673 0.013,-0.676 0.013,-0.682C0.013,-0.689 0.022,-0.692 0.041,-0.692C0.059,-0.692 0.084,-0.692 0.117,-0.693C0.24,-0.696 0.34,-0.696 0.418,-0.695L0.486,-0.694C0.501,-0.694 0.519,-0.695 0.54,-0.698L0.549,-0.589C0.552,-0.554 0.554,-0.533 0.554,-0.525C0.554,-0.518 0.551,-0.515 0.544,-0.515C0.537,-0.515 0.533,-0.524 0.531,-0.541C0.525,-0.587 0.507,-0.62 0.476,-0.642C0.444,-0.663 0.399,-0.673 0.338,-0.673C0.319,-0.673 0.287,-0.672 0.242,-0.67L0.242,-0.375C0.315,-0.374 0.362,-0.38 0.381,-0.391C0.4,-0.402 0.412,-0.43 0.419,-0.476C0.422,-0.501 0.427,-0.513 0.434,-0.513C0.44,-0.513 0.443,-0.507 0.443,-0.495C0.443,-0.483 0.442,-0.458 0.44,-0.421C0.439,-0.408 0.439,-0.391 0.439,-0.37C0.439,-0.313 0.44,-0.269 0.441,-0.24C0.442,-0.236 0.442,-0.231 0.442,-0.225C0.442,-0.217 0.439,-0.213 0.433,-0.213C0.428,-0.213 0.425,-0.215 0.424,-0.218C0.423,-0.221 0.421,-0.231 0.418,-0.25C0.411,-0.297 0.402,-0.327 0.391,-0.339C0.379,-0.35 0.352,-0.356 0.31,-0.356L0.242,-0.356L0.242,-0.019L0.306,-0.02C0.379,-0.021 0.424,-0.023 0.44,-0.025C0.46,-0.028 0.479,-0.035 0.498,-0.047C0.515,-0.06 0.526,-0.075 0.533,-0.09C0.539,-0.105 0.546,-0.134 0.553,-0.175C0.555,-0.185 0.558,-0.19 0.563,-0.19C0.568,-0.19 0.571,-0.185 0.571,-0.175Z" style="fill:#fff;fill-rule:nonzero;"/></g><g transform="matrix(47.6207,6.02271,-6.02271,47.6207,611.78,193.298)"><path d="M0.574,-0.18C0.574,-0.139 0.561,-0.103 0.536,-0.074C0.511,-0.044 0.476,-0.024 0.431,-0.014C0.396,-0.006 0.362,-0.001 0.331,-0C0.3,0.001 0.208,0.002 0.055,0.002C0.034,0.002 0.021,0.002 0.017,0.001C0.013,0 0.011,-0.002 0.011,-0.006C0.011,-0.012 0.022,-0.015 0.044,-0.015C0.065,-0.015 0.079,-0.018 0.084,-0.025C0.089,-0.031 0.092,-0.046 0.092,-0.071L0.091,-0.643C0.091,-0.662 0.076,-0.672 0.045,-0.673C0.022,-0.674 0.01,-0.677 0.01,-0.682C0.01,-0.688 0.017,-0.691 0.032,-0.691C0.046,-0.69 0.06,-0.689 0.073,-0.689L0.313,-0.689C0.467,-0.689 0.544,-0.636 0.544,-0.531C0.544,-0.444 0.487,-0.39 0.372,-0.369L0.37,-0.365C0.437,-0.351 0.484,-0.333 0.51,-0.312C0.553,-0.277 0.574,-0.233 0.574,-0.18ZM0.396,-0.527C0.396,-0.624 0.366,-0.672 0.306,-0.672C0.285,-0.672 0.27,-0.671 0.263,-0.669C0.248,-0.664 0.241,-0.654 0.241,-0.638L0.241,-0.374C0.3,-0.374 0.341,-0.384 0.363,-0.405C0.385,-0.426 0.396,-0.466 0.396,-0.527ZM0.414,-0.185C0.414,-0.279 0.387,-0.334 0.333,-0.349C0.312,-0.355 0.281,-0.358 0.241,-0.358L0.243,-0.3C0.243,-0.283 0.242,-0.26 0.241,-0.229C0.24,-0.214 0.24,-0.185 0.24,-0.143C0.24,-0.071 0.242,-0.033 0.246,-0.028C0.251,-0.021 0.266,-0.017 0.291,-0.017C0.373,-0.017 0.414,-0.073 0.414,-0.185Z" style="fill:#3c0000;fill-opacity:0.69;fill-rule:nonzero;"/></g><g transform="matrix(46.345,12.4957,-12.4957,46.345,661.391,200.933)"><path d="M0.685,-0.01C0.685,-0.005 0.683,-0.002 0.678,-0.001C0.673,0.001 0.66,0.001 0.639,0.001C0.634,0.001 0.619,0.001 0.594,-0C0.545,-0.001 0.511,-0.002 0.492,-0.002C0.47,-0.002 0.451,-0.002 0.434,-0.001C0.401,0 0.378,0.001 0.366,0.001C0.348,0.001 0.339,-0.002 0.339,-0.009C0.339,-0.016 0.358,-0.019 0.396,-0.02C0.405,-0.02 0.412,-0.021 0.417,-0.022C0.428,-0.023 0.433,-0.027 0.433,-0.034C0.433,-0.037 0.429,-0.051 0.421,-0.076L0.4,-0.141C0.396,-0.156 0.387,-0.183 0.374,-0.222L0.356,-0.222L0.278,-0.223C0.25,-0.224 0.22,-0.223 0.189,-0.222C0.183,-0.209 0.172,-0.179 0.155,-0.132L0.133,-0.067C0.13,-0.057 0.128,-0.049 0.128,-0.043C0.128,-0.032 0.135,-0.024 0.15,-0.021C0.153,-0.02 0.17,-0.019 0.199,-0.017C0.208,-0.016 0.213,-0.013 0.213,-0.008C0.213,-0.002 0.207,0.001 0.195,0.001L0.03,-0C0.026,0.001 0.022,0.001 0.017,0.001C0.008,0.001 0.003,-0.002 0.003,-0.009C0.003,-0.013 0.013,-0.016 0.034,-0.017C0.061,-0.018 0.078,-0.023 0.085,-0.032C0.092,-0.041 0.104,-0.069 0.121,-0.116C0.134,-0.149 0.152,-0.199 0.176,-0.264L0.297,-0.597C0.303,-0.612 0.311,-0.635 0.322,-0.666C0.329,-0.689 0.335,-0.7 0.339,-0.7C0.343,-0.7 0.35,-0.685 0.361,-0.654C0.374,-0.615 0.433,-0.459 0.537,-0.188C0.55,-0.153 0.564,-0.118 0.577,-0.082C0.588,-0.051 0.6,-0.033 0.611,-0.026C0.62,-0.021 0.64,-0.018 0.673,-0.019C0.681,-0.019 0.685,-0.016 0.685,-0.01ZM0.367,-0.244C0.366,-0.246 0.364,-0.252 0.36,-0.263C0.333,-0.34 0.314,-0.395 0.302,-0.426C0.299,-0.435 0.294,-0.447 0.288,-0.464L0.282,-0.482C0.27,-0.453 0.255,-0.414 0.238,-0.363C0.219,-0.306 0.205,-0.267 0.196,-0.244C0.202,-0.244 0.209,-0.244 0.218,-0.245L0.296,-0.245C0.311,-0.245 0.335,-0.245 0.367,-0.244Z" style="fill:#3c0000;fill-opacity:0.69;fill-rule:nonzero;"/></g><g transform="matrix(44.232,18.6421,-18.6421,44.232,712.318,216.175)"><path d="M0.667,-0.681C0.667,-0.678 0.665,-0.676 0.66,-0.675C0.655,-0.674 0.637,-0.673 0.606,-0.672C0.588,-0.671 0.578,-0.668 0.575,-0.661C0.572,-0.657 0.571,-0.636 0.572,-0.597L0.573,-0.481C0.574,-0.404 0.574,-0.303 0.574,-0.178L0.574,-0.008C0.574,0.003 0.572,0.009 0.567,0.009C0.56,0.009 0.511,-0.046 0.422,-0.157C0.332,-0.267 0.233,-0.393 0.126,-0.535L0.126,-0.461C0.126,-0.436 0.126,-0.414 0.127,-0.395L0.127,-0.05C0.127,-0.036 0.131,-0.027 0.14,-0.024C0.154,-0.019 0.17,-0.016 0.189,-0.016C0.211,-0.016 0.223,-0.014 0.226,-0.011C0.227,-0.01 0.227,-0.009 0.227,-0.007C0.227,-0.002 0.222,0.001 0.212,0.001C0.206,0.001 0.201,0.001 0.197,-0C0.157,-0.001 0.132,-0.002 0.122,-0.002C0.099,-0.002 0.068,-0.001 0.03,-0C0.011,0.001 0.003,0.001 0.006,0.001C-0.004,0.001 -0.009,-0.002 -0.009,-0.007C-0.009,-0.012 0.006,-0.015 0.035,-0.017C0.069,-0.02 0.089,-0.025 0.094,-0.033C0.097,-0.038 0.099,-0.062 0.099,-0.105L0.099,-0.516C0.099,-0.558 0.098,-0.583 0.097,-0.592C0.093,-0.621 0.081,-0.643 0.062,-0.656C0.047,-0.666 0.02,-0.672 -0.02,-0.673C-0.031,-0.674 -0.036,-0.677 -0.036,-0.682C-0.036,-0.688 -0.031,-0.691 -0.022,-0.691C-0.018,-0.691 -0.004,-0.69 0.021,-0.689C0.033,-0.688 0.051,-0.688 0.075,-0.688C0.124,-0.688 0.164,-0.689 0.195,-0.69L0.546,-0.239L0.546,-0.635C0.546,-0.651 0.543,-0.661 0.538,-0.666C0.533,-0.67 0.521,-0.672 0.504,-0.673L0.461,-0.675C0.453,-0.676 0.449,-0.678 0.449,-0.682C0.449,-0.687 0.455,-0.69 0.467,-0.69L0.489,-0.69C0.493,-0.69 0.5,-0.69 0.509,-0.691L0.532,-0.691C0.599,-0.691 0.639,-0.691 0.65,-0.69C0.661,-0.689 0.667,-0.686 0.667,-0.681Z" style="fill:#3c0000;fill-opacity:0.69;fill-rule:nonzero;"/></g><g transform="matrix(41.1659,24.6854,-24.6854,41.1659,759.972,237.807)"><path d="M0.679,-0.216C0.679,-0.209 0.666,-0.206 0.641,-0.207C0.611,-0.208 0.595,-0.201 0.593,-0.187C0.592,-0.179 0.591,-0.153 0.591,-0.108C0.591,-0.093 0.591,-0.079 0.592,-0.067C0.513,-0.013 0.437,0.014 0.365,0.014C0.27,0.014 0.191,-0.019 0.128,-0.086C0.064,-0.153 0.032,-0.236 0.032,-0.335C0.032,-0.44 0.065,-0.528 0.13,-0.598C0.195,-0.668 0.277,-0.703 0.376,-0.703C0.417,-0.703 0.459,-0.693 0.502,-0.673C0.518,-0.666 0.529,-0.662 0.535,-0.662C0.546,-0.662 0.555,-0.67 0.562,-0.686C0.565,-0.694 0.569,-0.698 0.573,-0.698C0.578,-0.698 0.58,-0.695 0.58,-0.688C0.58,-0.687 0.579,-0.673 0.577,-0.648C0.576,-0.64 0.576,-0.621 0.576,-0.591C0.576,-0.568 0.577,-0.545 0.578,-0.522C0.579,-0.499 0.58,-0.487 0.58,-0.487C0.58,-0.474 0.577,-0.468 0.57,-0.468C0.561,-0.468 0.554,-0.481 0.551,-0.508C0.543,-0.567 0.524,-0.613 0.493,-0.647C0.47,-0.672 0.439,-0.684 0.398,-0.684C0.272,-0.684 0.209,-0.572 0.209,-0.348C0.209,-0.209 0.23,-0.112 0.271,-0.057C0.297,-0.022 0.332,-0.005 0.375,-0.005C0.43,-0.005 0.457,-0.04 0.457,-0.109C0.457,-0.161 0.455,-0.19 0.451,-0.197C0.446,-0.203 0.435,-0.206 0.417,-0.206L0.392,-0.206C0.378,-0.206 0.371,-0.209 0.371,-0.215C0.371,-0.221 0.377,-0.224 0.388,-0.224C0.411,-0.224 0.441,-0.224 0.476,-0.223L0.54,-0.222C0.553,-0.222 0.573,-0.223 0.601,-0.224C0.628,-0.225 0.646,-0.225 0.654,-0.225L0.667,-0.225C0.675,-0.225 0.679,-0.222 0.679,-0.216Z" style="fill:#3c0000;fill-opacity:0.69;fill-rule:nonzero;"/></g></g><g id="Head"><g transform="matrix(1.03704,0,0,1,-15.9654,0)"><ellipse cx="536.589" cy="663.22" rx="105.589" ry="18.22" style="stroke:#000;stroke-width:3.93px;"/></g><g id="jaw" transform="matrix(1,0,0,1,4.25773,-7.97013)"><path d="M536.427,762C536.427,762 598.853,761 624.853,745C638.532,736.583 650.974,702.774 659.853,692C668.732,681.226 671.968,666.197 657.853,660.953C643.739,655.71 601.081,680.213 582.853,684C563.742,687.97 536.427,689 536.427,689C536.427,689 508.742,687.97 490,684C471.787,680.142 429.115,655.71 415,660.953C400.885,666.197 404.121,681.226 413,692C421.879,702.774 434.322,736.583 448,745C474,761 536.427,762 536.427,762" style="fill:#fff;stroke:#000;stroke-width:4px;"/></g><g id="teeth" transform="matrix(-0.948533,0,0,1.44954,1054.79,-299.899)"><g transform="matrix(-1,0,0,0.654368,1082,230.661)"><path d="M537.427,673L540.684,708L544,673L537.427,673Z" style="stroke:#000;stroke-width:4.22px;"/></g><path d="M514.783,670.62L518,692L509.783,671L514.783,670.62Z" style="stroke:#000;stroke-width:3.27px;"/><g transform="matrix(1,0,0,1,-27,-1.65437)"><path d="M519,672L518,692L514,671L519,672Z" style="stroke:#000;stroke-width:3.27px;"/></g><g transform="matrix(0.8,0,0,1.16667,47.8,-122.333)"><path d="M519,672L518,692L514,671L519,672Z" style="stroke:#000;stroke-width:3.05px;"/></g><g transform="matrix(0.8,0,0,1,23.8,-15)"><path d="M520.318,672L518,692L514,671L520.318,672Z" style="stroke:#000;stroke-width:3.46px;"/></g><g transform="matrix(-1,0,0,1,1084,0)"><path d="M521.109,672L518,692L514,671L521.109,672Z" style="stroke:#000;stroke-width:3.27px;"/></g><g transform="matrix(-1,0,0,1,1111,-1.65437)"><path d="M519,672L518,692L514,671L519,672Z" style="stroke:#000;stroke-width:3.27px;"/></g><g transform="matrix(-0.8,0,0,1.16667,1036.2,-122.333)"><path d="M519,672L518,692L514,671L519,672Z" style="stroke:#000;stroke-width:3.05px;"/></g><g transform="matrix(-0.8,0,0,1,1060.2,-15)"><path d="M519,672L518,692L514,671L519,672Z" style="stroke:#000;stroke-width:3.46px;"/></g></g><g id="head" transform="matrix(1.17688,0,0,1.06555,-116.774,-16.2028)"><path d="M709,368.523C667.674,346.491 646.432,322.09 558.644,322.09C479.139,322.09 407,368.523 407,368.523C407,368.523 394.088,414.743 383,451C371.912,487.257 369.032,509.09 387.249,540C405.466,570.91 428.218,616.821 448.237,622C468.255,627.179 508.667,640.192 558,640.192C607.333,640.192 647.745,627.179 667.763,622C687.782,616.821 710.534,570.91 728.751,540C746.968,509.09 744.088,487.257 733,451C721.912,414.743 709,368.523 709,368.523" style="fill:#fff;stroke:#000;stroke-width:3.56px;"/></g><g id="hat-middle" serif:id="hat middle" transform="matrix(1,0,0,1,0,18)"><path d="M540.684,175C622.549,175 706.26,277.603 741,302.5C771,324 768,330 734,334C687.88,339.426 613.88,414.847 540,416C466.12,414.847 328,331 328,331C328,331 303.846,327.694 338.37,302.5C368.518,280.5 457.304,175 539.168,175" style="fill:#a53232;stroke:#000;stroke-width:4px;"/></g><g id="hat-front" serif:id="hat front" transform="matrix(1,0,0,1,0,18)"><path d="M338,430C104,422 295.423,329.816 338.37,302.5C381.318,275.184 377.982,232.376 426,233C450.03,233.312 493.89,367 539.925,367C585.881,367 634.011,233.312 657.999,233C706.016,232.376 702.681,275.184 745.628,302.5C788.576,329.816 981,419 742,430C742,390.141 690.739,420 539.926,420C389.114,420 338,386.814 338,430Z" style="fill:#fff;stroke:#000;stroke-width:4px;"/><g transform="matrix(0.981693,0,0,0.981693,10.2049,14.9013)"><path d="M334.926,422.84C100.926,414.84 295.423,329.816 338.37,302.5C381.318,275.184 377.988,233.998 426,233C441.704,232.674 489.576,366.559 539.598,366.814C588.845,367.065 640.232,233.689 657.999,233C705.984,231.138 702.681,275.184 745.628,302.5C788.576,329.816 984.442,411.84 745.442,422.84C745.442,382.981 690.739,420 539.926,420C389.114,420 334.926,379.654 334.926,422.84Z" style="fill:#a00b0b;stroke:#000;stroke-width:4px;"/></g></g><g id="teeth1" serif:id="teeth" transform="matrix(-0.948533,0,0,-1.44954,1054.11,1604.91)"><g transform="matrix(-1,0,0,0.654368,1082,206.515)"><path d="M537.427,673L540.684,706.946L544,673L537.427,673Z" style="stroke:#000;stroke-width:4.22px;"/></g><g transform="matrix(1,0,0,1,0,-22.0759)"><path d="M519,672L518,692L514,671L519,672Z" style="stroke:#000;stroke-width:3.27px;"/></g><g transform="matrix(1,0,0,1,-27,-20.9708)"><path d="M519,672L518,692L514,671L519,672Z" style="stroke:#000;stroke-width:3.27px;"/></g><g transform="matrix(0.8,0,0,1.16667,47.8,-129.922)"><path d="M521.636,672L518,690.226L512.682,672.183L521.636,672Z" style="stroke:#000;stroke-width:3.05px;"/></g><g transform="matrix(0.8,0,0,1,23.8,-14.3101)"><path d="M519,672L518,692L514,671L519,672Z" style="stroke:#000;stroke-width:3.46px;"/></g><g transform="matrix(-1,0,0,1,1084,-21.3861)"><path d="M519,672L518,691.31L510.837,671L519,672Z" style="stroke:#000;stroke-width:3.27px;"/></g><g transform="matrix(-1,0,0,1,1111,-20.9708)"><path d="M519,672L518,692L511.891,671L519,672Z" style="stroke:#000;stroke-width:3.27px;"/></g><g transform="matrix(-0.8,0,0,1.16667,1036.2,-130.612)"><path d="M519,672L518,690.226L514,671L519,672Z" style="stroke:#000;stroke-width:3.05px;"/></g><g transform="matrix(-0.8,0,0,1,1060.2,-14.3101)"><path d="M519,672L518,693.38L511.364,671L519,672Z" style="stroke:#000;stroke-width:3.46px;"/></g></g><g id="nose" transform="matrix(1,0,0,1,0,-1)"><path d="M541.791,605.085C541.791,605.085 562.568,613.587 567.926,606.085C577.926,592.085 564.734,583.126 562.926,574.085C553.926,529.085 540,532.985 540,532.985L539.926,532.9C539.926,532.9 526,529 517,574C515.192,583.041 502,592 512,606C517.359,613.502 538.135,605 538.135,605" style="stroke:#000;stroke-width:4px;"/></g><g id="left-eye" serif:id="left eye" transform="matrix(1,0,0,1,7.23789,5.10371)"><path d="M375,466C375,466 389.761,439.647 418,440C446.239,440.353 481.463,452.726 486.112,472C490.761,491.274 485.81,513.803 475,521.215C464.19,528.627 407.138,531.255 396,521.215C384.862,511.175 371.841,479.394 375,466Z" style="stroke:#000;stroke-width:4px;"/></g><g id="right-eye" serif:id="right eye" transform="matrix(-1,0,0,1,1072.61,5.10371)"><path d="M375,466C375,466 389.761,439.647 418,440C446.239,440.353 481.463,452.726 486.112,472C490.761,491.274 485.81,513.803 475,521.215C464.19,528.627 407.138,531.255 396,521.215C384.862,511.175 371.841,479.394 375,466Z" style="stroke:#000;stroke-width:4px;"/></g></g></g></svg>