<svg width="215" height="245" viewBox="0 0 215 245" fill="none" xmlns="http://www.w3.org/2000/svg">
<path id="Vector" d="M0 51.5C16.5 51 58.4 37.1 64 -2.5M0 59C18.3333 60.5 67.5 40 72 -1.5M0 66.5C3.11725 66.457 6.66654 66.1905 10.5 65.6464M10.5 65.6464L69 232L25.5 62.3266M10.5 65.6464C15.1677 64.9839 20.2567 63.9099 25.5 62.3266M25.5 62.3266L125.5 208.5L42 55.656M25.5 62.3266C30.9333 60.686 36.5323 58.4987 42 55.656M42 55.656L169.5 161L61.0173 42M42 55.656C48.7214 52.1616 55.2444 47.6769 61.0173 42M61.0173 42L192.5 88L69 32.6294M61.0173 42C63.886 39.1791 66.5694 36.0638 69 32.6294M69 32.6294C70.3729 30.6896 71.665 28.6479 72.8643 26.5M72.8643 26.5L203 32.6294L77.5 16.3584M72.8643 26.5C74.6218 23.3523 76.1798 19.9765 77.5 16.3584M77.5 16.3584C77.7828 15.5834 78.0546 14.7973 78.3152 14M78.3152 14C79.7295 9.67219 80.8112 5.01288 81.5 0M78.3152 14L214.5 0M10.5 66.5V244L-9.5 66.5M14.5 65.5L59.5 203M30.5 61L111 185.5M48 52.5L154 146.5M64 38.5L165 78.379M75 23L172 31.1693M80 8L211.5 0M-0.5 61C19 62.1667 61.4 51.5 75 -0.5M-0.5 47C11.6667 46.6667 47.5 32.8 59.5 -4M-0.5 55.5C18 53.5 57.5 39.1 67.5 -2.5" stroke="#C71E5E" stroke-opacity="0.38"/>
</svg>
