<?xml version="1.0" encoding="UTF-8"?>
<svg id="Layer_2" data-name="Layer 2" xmlns="http://www.w3.org/2000/svg" viewBox="0 0 774.83 180.91">
  <defs>
    <style>
      .cls-1 {
        fill: #fff;
      }
    </style>
  </defs>
  <g id="Layer_1-2" data-name="Layer 1">
    <g>
      <g>
        <path class="cls-1" d="m0,77.05v-4.09h10.93l.61,5.06c.99-1.78,2.21-3.18,3.66-4.19,1.45-1.01,3.11-1.51,4.98-1.51.49,0,1,.04,1.53.11.53.08.93.16,1.21.24l-.84,5.9-3.61-.19c-1.68,0-3.08.39-4.22,1.18-1.14.79-2.02,1.89-2.64,3.3v20.02l5.26.9v4.06H0v-4.06l5.26-.9v-24.92l-5.26-.9Z"/>
        <path class="cls-1" d="m44.11,108.52c-4.86,0-8.72-1.62-11.59-4.85-2.87-3.23-4.3-7.43-4.3-12.59v-1.42c0-4.96,1.48-9.1,4.43-12.4,2.96-3.3,6.45-4.95,10.49-4.95,4.69,0,8.24,1.42,10.66,4.26,2.42,2.84,3.63,6.62,3.63,11.35v3.97h-22.63l-.1.16c.06,3.35.91,6.11,2.55,8.27,1.63,2.16,3.92,3.24,6.87,3.24,2.15,0,4.04-.31,5.66-.92,1.62-.61,3.02-1.46,4.21-2.53l2.48,4.13c-1.25,1.2-2.9,2.22-4.95,3.05-2.05.83-4.52,1.24-7.4,1.24Zm-.97-31.21c-2.13,0-3.94.9-5.45,2.69-1.5,1.79-2.43,4.05-2.77,6.75l.06.16h16.09v-.84c0-2.49-.67-4.58-2-6.25-1.33-1.68-3.31-2.51-5.93-2.51Z"/>
        <path class="cls-1" d="m64.56,77.66v-4.71h5.45v-4.42c0-3.72.97-6.59,2.92-8.62,1.94-2.03,4.66-3.05,8.14-3.05.73,0,1.47.06,2.21.18.74.12,1.56.29,2.47.5l-.77,4.84c-.39-.09-.85-.16-1.4-.23-.55-.06-1.11-.1-1.69-.1-1.87,0-3.26.55-4.16,1.66-.9,1.11-1.35,2.71-1.35,4.82v4.42h7.29v4.71h-7.29v25.21l5.26.9v4.06h-16.86v-4.06l5.26-.9v-25.21h-5.45Z"/>
        <path class="cls-1" d="m91.88,61.64v-4.09h11.61v45.33l5.26.9v4.06h-16.86v-4.06l5.26-.9v-40.33l-5.26-.9Z"/>
        <path class="cls-1" d="m130.33,108.52c-4.86,0-8.72-1.62-11.59-4.85-2.87-3.23-4.3-7.43-4.3-12.59v-1.42c0-4.96,1.48-9.1,4.43-12.4,2.96-3.3,6.45-4.95,10.49-4.95,4.69,0,8.24,1.42,10.66,4.26,2.42,2.84,3.63,6.62,3.63,11.35v3.97h-22.63l-.1.16c.06,3.35.91,6.11,2.55,8.27,1.63,2.16,3.92,3.24,6.87,3.24,2.15,0,4.04-.31,5.66-.92,1.62-.61,3.02-1.46,4.21-2.53l2.48,4.13c-1.25,1.2-2.9,2.22-4.95,3.05-2.05.83-4.52,1.24-7.4,1.24Zm-.97-31.21c-2.13,0-3.94.9-5.45,2.69-1.5,1.79-2.43,4.05-2.77,6.75l.06.16h16.09v-.84c0-2.49-.67-4.58-2-6.25-1.33-1.68-3.31-2.51-5.93-2.51Z"/>
        <path class="cls-1" d="m167.39,103.55c2.11,0,3.96-.65,5.56-1.95,1.6-1.3,2.4-2.9,2.4-4.79h5.71l.06.19c.11,3.01-1.23,5.68-4.01,8.01-2.78,2.33-6.02,3.5-9.72,3.5-5.07,0-8.95-1.65-11.62-4.96-2.68-3.31-4.01-7.47-4.01-12.48v-1.35c0-4.96,1.34-9.11,4.03-12.43,2.69-3.32,6.56-4.98,11.61-4.98,2.79,0,5.3.46,7.53,1.39,2.22.93,4.07,2.19,5.53,3.81l.29,7.74h-5.06l-1.39-5.48c-.75-.73-1.72-1.32-2.9-1.77-1.18-.45-2.51-.68-4-.68-3.33,0-5.71,1.2-7.14,3.59-1.43,2.4-2.14,5.34-2.14,8.82v1.35c0,3.57.71,6.54,2.13,8.91,1.42,2.38,3.8,3.56,7.16,3.56Z"/>
        <path class="cls-1" d="m200.35,64.54v8.41h6.61v4.71h-6.61v21.18c0,1.63.34,2.78,1.02,3.45.68.67,1.57,1,2.69,1,.56,0,1.19-.05,1.89-.15.7-.1,1.28-.2,1.76-.31l.87,4.35c-.6.39-1.48.7-2.64.95-1.16.25-2.32.37-3.48.37-2.58,0-4.63-.78-6.16-2.34-1.53-1.56-2.29-4-2.29-7.33v-21.18h-5.51v-4.71h5.51v-8.41h6.35Z"/>
        <path class="cls-1" d="m216,103.78l5.26-.9v-24.92l-5.26-.9v-4.09h11.61v29.92l5.26.9v4.06h-16.86v-4.06Zm11.61-39.75h-6.35v-6.48h6.35v6.48Z"/>
        <path class="cls-1" d="m238.57,90.08c0-5.16,1.4-9.41,4.19-12.75,2.79-3.34,6.59-5.01,11.38-5.01s8.62,1.67,11.43,5c2.8,3.33,4.21,7.59,4.21,12.77v.71c0,5.2-1.4,9.46-4.19,12.77-2.79,3.31-6.59,4.96-11.38,4.96s-8.65-1.66-11.45-4.98c-2.79-3.32-4.19-7.57-4.19-12.75v-.71Zm6.35.71c0,3.7.78,6.75,2.34,9.16,1.56,2.41,3.87,3.61,6.95,3.61s5.3-1.2,6.87-3.61c1.57-2.41,2.35-5.46,2.35-9.16v-.71c0-3.65-.78-6.69-2.35-9.12-1.57-2.43-3.88-3.64-6.93-3.64s-5.35,1.21-6.9,3.64c-1.55,2.43-2.32,5.47-2.32,9.12v.71Z"/>
        <path class="cls-1" d="m275.69,103.78l5.26-.9v-24.92l-5.26-.9v-4.09h10.93l.45,5.19c1.16-1.85,2.62-3.28,4.37-4.3,1.75-1.02,3.75-1.53,5.98-1.53,3.76,0,6.67,1.1,8.74,3.3,2.06,2.2,3.1,5.61,3.1,10.2v17.05l5.26.9v4.06h-16.86v-4.06l5.26-.9v-16.93c0-3.07-.61-5.26-1.82-6.55-1.21-1.29-3.07-1.93-5.56-1.93-1.83,0-3.44.44-4.85,1.32-1.41.88-2.53,2.09-3.37,3.61v20.47l5.26.9v4.06h-16.86v-4.06Z"/>
        <path class="cls-1" d="m347.79,83.92h-4.77l-1.03-4.19c-.77-.73-1.75-1.32-2.92-1.76-1.17-.44-2.5-.66-3.98-.66-2.26,0-3.93.49-5.03,1.48-1.1.99-1.64,2.18-1.64,3.58s.48,2.46,1.45,3.26c.97.8,2.93,1.5,5.9,2.13,4.41.95,7.68,2.23,9.83,3.85,2.15,1.62,3.22,3.8,3.22,6.53,0,3.1-1.25,5.6-3.76,7.51-2.5,1.91-5.78,2.87-9.82,2.87-2.64,0-5.02-.31-7.13-.92-2.11-.61-3.99-1.5-5.64-2.66l-.03-7.96h4.77l1.19,4.67c.73.67,1.72,1.15,2.98,1.45s2.54.45,3.85.45c2.26,0,4.02-.46,5.3-1.37,1.28-.91,1.92-2.11,1.92-3.59,0-1.4-.53-2.55-1.6-3.45s-3.08-1.69-6.05-2.35c-4.23-.92-7.43-2.18-9.58-3.77-2.15-1.59-3.22-3.74-3.22-6.45s1.21-5.26,3.63-7.25c2.42-2,5.56-3,9.43-3,2.64,0,5.02.34,7.13,1.03,2.11.69,3.86,1.64,5.26,2.87l.32,7.71Z"/>
      </g>
      <rect class="cls-1" x="378.42" width="6.75" height="180.91"/>
      <g>
        <path class="cls-1" d="m412.66,117.74l5.26-.9v-38.3l-5.26-.9v-4.09h10.7l.58,4.26c1.16-1.59,2.57-2.8,4.24-3.64,1.67-.84,3.59-1.26,5.79-1.26,4.32,0,7.68,1.71,10.08,5.14,2.4,3.43,3.59,7.96,3.59,13.59v.68c0,5.03-1.2,9.09-3.61,12.17-2.41,3.08-5.73,4.63-9.96,4.63-2.15,0-4.04-.36-5.66-1.08-1.62-.72-3-1.79-4.14-3.21v12.03l5.26.9v4.09h-16.86v-4.09Zm28.6-26.12c0-3.98-.77-7.23-2.32-9.77-1.55-2.54-3.85-3.8-6.9-3.8-1.81,0-3.35.41-4.64,1.23-1.29.82-2.33,1.93-3.13,3.35v16.99c.79,1.44,1.83,2.55,3.11,3.34,1.28.78,2.85,1.18,4.72,1.18,3.01,0,5.29-1.1,6.83-3.29,1.55-2.19,2.32-5.04,2.32-8.54v-.68Z"/>
        <path class="cls-1" d="m454.19,77.63v-4.09h10.93l.61,5.06c.99-1.78,2.21-3.18,3.66-4.19,1.45-1.01,3.11-1.51,4.98-1.51.49,0,1,.04,1.53.11.53.08.93.16,1.21.24l-.84,5.9-3.61-.19c-1.68,0-3.08.39-4.22,1.18-1.14.79-2.02,1.89-2.64,3.3v20.02l5.26.9v4.06h-16.86v-4.06l5.26-.9v-24.92l-5.26-.9Z"/>
        <path class="cls-1" d="m482.44,90.66c0-5.16,1.4-9.41,4.19-12.75,2.79-3.34,6.59-5.01,11.38-5.01s8.62,1.67,11.43,5c2.8,3.33,4.21,7.59,4.21,12.77v.71c0,5.2-1.4,9.46-4.19,12.77-2.79,3.31-6.59,4.96-11.38,4.96s-8.65-1.66-11.45-4.98c-2.79-3.32-4.19-7.57-4.19-12.75v-.71Zm6.35.71c0,3.7.78,6.75,2.34,9.16,1.56,2.41,3.87,3.61,6.95,3.61s5.3-1.2,6.87-3.61c1.57-2.41,2.35-5.46,2.35-9.16v-.71c0-3.65-.78-6.69-2.35-9.12-1.57-2.43-3.88-3.64-6.93-3.64s-5.35,1.21-6.9,3.64c-1.55,2.43-2.32,5.47-2.32,9.12v.71Z"/>
        <path class="cls-1" d="m530.91,111.29c0,3.59-.92,6.36-2.77,8.3-1.85,1.94-4.42,2.92-7.71,2.92-.69,0-1.31-.05-1.87-.14-.56-.1-1.14-.24-1.74-.44l.42-5c.3.11.74.2,1.32.27.58.08,1.05.11,1.42.11,1.4,0,2.51-.47,3.34-1.42.83-.95,1.24-2.48,1.24-4.61v-32.76l-5.26-.9v-4.09h11.61v37.75Zm-.19-46.81h-6.35v-6.35h6.35v6.35Z"/>
        <path class="cls-1" d="m556.35,109.1c-4.86,0-8.72-1.62-11.59-4.85-2.87-3.23-4.3-7.43-4.3-12.59v-1.42c0-4.96,1.48-9.1,4.43-12.4,2.96-3.3,6.45-4.95,10.49-4.95,4.69,0,8.24,1.42,10.66,4.26,2.42,2.84,3.63,6.62,3.63,11.35v3.97h-22.63l-.1.16c.06,3.35.91,6.11,2.55,8.27,1.63,2.16,3.92,3.24,6.87,3.24,2.15,0,4.04-.31,5.66-.92,1.62-.61,3.02-1.46,4.21-2.53l2.48,4.13c-1.25,1.2-2.9,2.22-4.95,3.05-2.05.83-4.52,1.24-7.4,1.24Zm-.97-31.21c-2.13,0-3.94.9-5.45,2.69-1.5,1.79-2.43,4.05-2.77,6.75l.06.16h16.09v-.84c0-2.49-.67-4.58-2-6.25-1.33-1.68-3.31-2.51-5.93-2.51Z"/>
        <path class="cls-1" d="m593.4,104.13c2.11,0,3.96-.65,5.56-1.95,1.6-1.3,2.4-2.9,2.4-4.79h5.71l.06.19c.11,3.01-1.23,5.68-4.01,8.01-2.78,2.33-6.02,3.5-9.72,3.5-5.07,0-8.95-1.65-11.62-4.96-2.68-3.31-4.01-7.47-4.01-12.48v-1.35c0-4.96,1.34-9.11,4.03-12.43,2.69-3.32,6.56-4.98,11.61-4.98,2.79,0,5.3.46,7.53,1.39,2.22.93,4.07,2.19,5.53,3.81l.29,7.74h-5.06l-1.39-5.48c-.75-.73-1.72-1.32-2.9-1.77-1.18-.45-2.51-.68-4-.68-3.33,0-5.71,1.2-7.14,3.59-1.43,2.4-2.14,5.34-2.14,8.82v1.35c0,3.57.71,6.54,2.13,8.91,1.42,2.38,3.8,3.56,7.16,3.56Z"/>
        <path class="cls-1" d="m626.37,65.12v8.41h6.61v4.71h-6.61v21.18c0,1.63.34,2.78,1.02,3.45.68.67,1.57,1,2.69,1,.56,0,1.19-.05,1.89-.15.7-.1,1.28-.2,1.76-.31l.87,4.35c-.6.39-1.48.7-2.64.95-1.16.25-2.32.37-3.48.37-2.58,0-4.63-.78-6.16-2.34-1.53-1.56-2.29-4-2.29-7.33v-21.18h-5.51v-4.71h5.51v-8.41h6.35Z"/>
        <path class="cls-1" d="m642.01,104.36l5.26-.9v-24.92l-5.26-.9v-4.09h11.61v29.92l5.26.9v4.06h-16.86v-4.06Zm11.61-39.75h-6.35v-6.48h6.35v6.48Z"/>
        <path class="cls-1" d="m664.58,90.66c0-5.16,1.4-9.41,4.19-12.75,2.79-3.34,6.59-5.01,11.38-5.01s8.62,1.67,11.43,5c2.8,3.33,4.21,7.59,4.21,12.77v.71c0,5.2-1.4,9.46-4.19,12.77-2.79,3.31-6.59,4.96-11.38,4.96s-8.65-1.66-11.45-4.98c-2.79-3.32-4.19-7.57-4.19-12.75v-.71Zm6.35.71c0,3.7.78,6.75,2.34,9.16,1.56,2.41,3.87,3.61,6.95,3.61s5.3-1.2,6.87-3.61c1.57-2.41,2.35-5.46,2.35-9.16v-.71c0-3.65-.78-6.69-2.35-9.12-1.57-2.43-3.88-3.64-6.93-3.64s-5.35,1.21-6.9,3.64c-1.55,2.43-2.32,5.47-2.32,9.12v.71Z"/>
        <path class="cls-1" d="m701.71,104.36l5.26-.9v-24.92l-5.26-.9v-4.09h10.93l.45,5.19c1.16-1.85,2.62-3.28,4.37-4.3,1.75-1.02,3.75-1.53,5.98-1.53,3.76,0,6.67,1.1,8.74,3.3,2.06,2.2,3.1,5.61,3.1,10.2v17.05l5.26.9v4.06h-16.86v-4.06l5.26-.9v-16.93c0-3.07-.61-5.26-1.82-6.55-1.21-1.29-3.07-1.93-5.56-1.93-1.83,0-3.44.44-4.85,1.32-1.41.88-2.53,2.09-3.37,3.61v20.47l5.26.9v4.06h-16.86v-4.06Z"/>
        <path class="cls-1" d="m773.8,84.5h-4.77l-1.03-4.19c-.77-.73-1.75-1.32-2.92-1.76-1.17-.44-2.5-.66-3.98-.66-2.26,0-3.93.49-5.03,1.48-1.1.99-1.64,2.18-1.64,3.58s.48,2.46,1.45,3.26c.97.8,2.93,1.5,5.9,2.13,4.41.95,7.68,2.23,9.83,3.85,2.15,1.62,3.22,3.8,3.22,6.53,0,3.1-1.25,5.6-3.76,7.51-2.5,1.91-5.78,2.87-9.82,2.87-2.64,0-5.02-.31-7.13-.92-2.11-.61-3.99-1.5-5.64-2.66l-.03-7.96h4.77l1.19,4.67c.73.67,1.72,1.15,2.98,1.45,1.26.3,2.54.45,3.85.45,2.26,0,4.02-.46,5.3-1.37,1.28-.91,1.92-2.11,1.92-3.59,0-1.4-.53-2.55-1.6-3.45s-3.08-1.69-6.05-2.35c-4.23-.92-7.43-2.18-9.58-3.77-2.15-1.59-3.22-3.74-3.22-6.45s1.21-5.26,3.63-7.25c2.42-2,5.56-3,9.43-3,2.64,0,5.02.34,7.13,1.03,2.11.69,3.86,1.64,5.26,2.87l.32,7.71Z"/>
      </g>
    </g>
  </g>
</svg>