<?xml version="1.0" encoding="UTF-8"?><svg id="Layer_2" xmlns="http://www.w3.org/2000/svg" viewBox="0 0 338.54 343.27"><defs><style>.cls-1{fill:#fff;}.cls-2{fill:#e3232d;}.cls-3{fill:#c61e5d;}.cls-4{fill:#e87066;}.cls-5{fill:#de5278;}.cls-6{fill:#1d2e5b;}.cls-7{fill:#e75f6b;}.cls-8{fill:#f27391;}.cls-9{fill:#cd2029;}.cls-10{fill:#f37c84;}.cls-11{fill:none;}.cls-12{fill:#f58d77;}.cls-13{fill:#ed4079;}.cls-14{fill:#b02527;}.cls-15{fill:#a12124;}.cls-16{fill:#8f1c1e;}</style></defs><g id="Layer_1-2"><path class="cls-6" d="m169.27,0c93.49,0,169.27,76.84,169.27,171.64s-75.79,171.64-169.27,171.64S0,266.43,0,171.64,75.79,0,169.27,0"/><g><path class="cls-15" d="m110.48,169.6c3.29-7.42,9.38-13.18,16.9-16-11.95-11.79-18.92-27.82-19.44-44.71-24.18,1-45.36,16.72-53.61,39.78-4.56,16.15,4.66,32.98,20.58,37.6,14.3,4.15,29.45-2.96,35.58-16.71l-.02.04Z"/><path class="cls-9" d="m167.45,186.75c-.41,2.7-1.18,5.33-2.28,7.83-13.61,30.63-49.12,44.28-79.33,30.48-30.21-13.8-43.67-49.81-30.06-80.44-6.6,15.41.37,33.32,15.56,40.02,14.91,6.56,32.26-.1,39.13-15.04,3.29-7.42,9.38-13.18,16.9-16,10.46,10.39,24.11,16.85,38.68,18.3,1.27.12,2.56.2,3.87.25-.23,4.99-1.06,9.93-2.49,14.72,0-.03,0-.07.01-.11"/><path class="cls-16" d="m171.58,107.71c7.32,3.34,13,9.51,15.78,17.14,11.62-12.12,27.44-19.19,44.1-19.71-.98-24.53-16.49-46.02-39.25-54.38-15.93-4.62-32.53,4.72-37.09,20.87-4.09,14.5,2.92,29.86,16.48,36.08h-.02Z"/><path class="cls-14" d="m172.34,232.48c-7.32-3.34-13-9.51-15.78-17.14-11.63,12.1-27.44,19.13-44.09,19.63.94,24.56,16.46,46.08,39.24,54.46,15.93,4.62,32.53-4.72,37.08-20.87,4.09-14.5-2.92-29.86-16.48-36.08h.03Z"/><path class="cls-2" d="m189.26,174.71c2.66.42,5.26,1.19,7.72,2.31,30.21,13.8,43.67,49.81,30.06,80.44-13.61,30.63-49.12,44.28-79.33,30.48,15.2,6.69,32.87-.38,39.46-15.78,6.47-15.11-.1-32.71-14.83-39.68-7.32-3.34-13-9.51-15.78-17.14,10.25-10.61,16.63-24.44,18.07-39.22.12-1.3.2-2.61.25-3.92,4.92.23,9.8,1.08,14.51,2.52h-.13Z"/><path class="cls-1" d="m174.86,173c-1.89.48-3.88.48-5.77,0-.51-1.92-.51-3.93,0-5.85,1.87-.66,3.9-.66,5.77,0,.73,1.88.73,3.97,0,5.85"/><path class="cls-1" d="m236.81,232.46c-.01-35.1-27.36-63.93-61.95-65.31.04.85.07,1.7.07,2.55"/><path class="cls-1" d="m174.92,169.7c0,1.13-.03,2.24-.08,3.33,32.39,1.36,57.55,29.08,56.21,61.91-1.3,31.91-27.21,57.09-58.72,57.05-31.53,0-57.31-25.45-58.63-57.1-1.11.06-2.13.1-3.23.1-.85,0-1.74-.05-2.57-.08"/><path class="cls-7" d="m109.34,169.78c3.22-7.25,9.17-12.89,16.53-15.65-11.69-11.53-18.5-27.2-19.01-43.72-23.64.98-44.35,16.35-52.42,38.9-4.46,15.79,4.55,32.25,20.13,36.77,13.99,4.06,28.8-2.9,34.79-16.34l-.02.04Z"/><path class="cls-11" d="m165.54,184.9v-.14s0,.09,0,.14Z"/><path class="cls-10" d="m165.06,186.56c-.4,2.64-1.15,5.22-2.23,7.65-13.3,29.95-48.04,43.3-77.58,29.81-29.54-13.49-42.7-48.71-29.4-78.66-6.45,15.07.36,32.58,15.22,39.13,14.58,6.42,31.54-.1,38.26-14.7,3.22-7.25,9.17-12.89,16.53-15.65,10.23,10.16,23.58,16.47,37.83,17.9h0c1.25.12,2.51.2,3.79.25-.22,4.88-1.04,9.71-2.43,14.39,0-.03,0-.07.01-.11Z"/><path class="cls-1" d="m169.9,172.35c-1.09,0-2.16-.03-3.21-.08-1.35,32.11-28.11,57.03-59.78,55.67-31.67-1.37-56.25-28.5-54.9-60.61,1.27-30.19,25.11-54.38,54.89-55.67-.05-1.08-.08-2.16-.08-3.26,0-.84.03-1.66.06-2.5-34.8,1.38-61.92,31.1-60.56,66.39,1.36,35.29,30.67,62.78,65.48,61.4,32.9-1.3,59.28-28.05,60.56-61.41-.82.03-1.63.06-2.46.06Z"/><path class="cls-5" d="m168.98,109.14c7.13,3.31,12.66,9.38,15.33,16.86,11.44-11.78,26.94-18.59,43.24-19-.82-23.99-15.86-45.1-38.06-53.42-15.54-4.62-31.84,4.42-36.39,20.18-4.09,14.16,2.68,29.22,15.9,35.38h-.02Z"/><path class="cls-8" d="m152.56,165.75c-2.61-.41-5.14-1.17-7.55-2.26-29.54-13.49-42.7-48.71-29.4-78.66,13.3-29.95,48.04-43.3,77.58-29.81-14.86-6.54-32.14.37-38.59,15.43-6.33,14.78.1,31.98,14.5,38.8,7.15,3.26,12.72,9.3,15.43,16.76-10.02,10.37-16.25,23.91-17.65,38.36h0c-.12,1.27-.2,2.55-.25,3.84-4.81-.23-9.58-1.06-14.19-2.47h.11Z"/><path class="cls-1" d="m166.58,170.65c0-1.1.03-2.19.08-3.26-31.67-1.33-56.28-28.43-54.97-60.55,1.27-31.21,26.61-55.83,57.42-55.79,30.83,0,56.05,24.85,57.34,55.77,1.06-.06,2.13-.08,3.21-.08.83,0,1.63.03,2.46.06-1.3-34.09-29.06-61.51-63.01-61.51-34.83,0-63.06,28.64-63.05,63.96,0,34.33,26.75,62.53,60.58,63.88,0-.83-.05-1.66-.05-2.5Z"/><path class="cls-4" d="m169.84,231.28c-7.15-3.26-12.71-9.3-15.43-16.76-11.37,11.83-26.83,18.71-43.12,19.19.92,24.01,16.09,45.07,38.37,53.26,15.57,4.52,31.81-4.62,36.26-20.41,4-14.18-2.86-29.2-16.11-35.28h.03Z"/><path class="cls-12" d="m185.76,174.78c2.57.41,5.07,1.17,7.43,2.26,29.09,13.49,42.05,48.71,28.95,78.66-13.1,29.95-47.31,43.3-76.39,29.81h0c14.63,6.54,31.65-.37,38-15.43,6.23-14.78-.1-31.98-14.28-38.8-7.04-3.26-12.52-9.3-15.2-16.76,9.87-10.37,16.01-23.9,17.4-38.36h0c.12-1.27.19-2.55.24-3.84,4.74.23,9.43,1.06,13.98,2.47h-.13Z"/><path class="cls-1" d="m172.3,173.11c-1.85.47-3.79.47-5.64,0-.5-1.87-.5-3.85,0-5.72,1.83-.65,3.82-.65,5.64,0,.71,1.84.71,3.88,0,5.72Z"/><path class="cls-3" d="m229.41,170.87c-3.16,7.28-9.07,12.97-16.4,15.78,11.78,11.43,18.72,27.05,19.36,43.57,23.64-1.17,44.24-16.71,52.13-39.34,4.33-15.82-4.81-32.21-20.42-36.61-14.02-3.95-28.77,3.13-34.66,16.62v-.02Z"/><path class="cls-11" d="m173.54,155.59v.14s0-.09,0-.14Z"/><path class="cls-13" d="m173.86,153.93c.4-2.64,1.15-5.22,2.23-7.65,13.31-29.95,48.05-43.29,77.58-29.8,29.54,13.5,42.7,48.72,29.39,78.67,6.45-15.07-.36-32.58-15.22-39.13-14.58-6.42-31.54.1-38.26,14.7-3.22,7.25-9.17,12.89-16.53,15.65-10.23-10.16-23.58-16.47-37.83-17.9h0c-.99-.1-1.98-.17-2.98-.22-.27,0,0-.5-.25-.5,0-.33-.54-.18-.51-.51.28-4.55,1.08-9.05,2.39-13.41,0,.02,0,.06-.01.09Z"/><path class="cls-1" d="m168.29,168.12c1.09,0,2.15.05,3.21.1,1.35-32.11,28.11-57.03,59.78-55.66,31.67,1.37,56.25,28.51,54.9,60.62-1.27,30.21-25.14,54.4-54.93,55.66.05,1.08.08,2.16.08,3.26,0,.84-.03,1.66-.06,2.5,34.8-1.36,61.93-31.07,60.59-66.36-1.34-35.29-30.65-62.79-65.45-61.43-32.9,1.29-59.29,28.02-60.59,61.39.82-.03,1.64-.06,2.47-.06Z"/><path class="cls-1" d="m171.72,169.51c0,1.1.62,2.56.56,3.63,31.67,1.33,56.28,28.43,54.97,60.55-1.27,31.21-26.61,55.83-57.42,55.79-30.83,0-56.05-24.89-57.34-55.83-1.09.06-2.08.1-3.16.1-.83,0-1.7-.05-2.52-.08,1.3,34.11,29.06,61.57,63.01,61.57,34.83-.01,63.05-28.65,63.04-63.97-.01-34.33-28.08-62.67-61.91-64.02.03.83.75,1.44.75,2.27Z"/></g></g></svg>